<svg xmlns="http://www.w3.org/2000/svg" xmlns:xlink="http://www.w3.org/1999/xlink" width="600" height="400" viewBox="0 0 2400 1600">
<defs>
  <clipPath id="clip550">
    <rect x="0" y="0" width="2400" height="1600"></rect>
  </clipPath>
</defs>
<path clip-path="url(#clip550)" d="M0 1600 L2400 1600 L2400 0 L0 0  Z" fill="#ffffff" fill-rule="evenodd" fill-opacity="1"></path>
<defs>
  <clipPath id="clip551">
    <rect x="480" y="0" width="1681" height="1600"></rect>
  </clipPath>
</defs>
<path clip-path="url(#clip550)" d="M219.866 1423.18 L2352.76 1423.18 L2352.76 47.2441 L219.866 47.2441  Z" fill="#ffffff" fill-rule="evenodd" fill-opacity="1"></path>
<defs>
  <clipPath id="clip552">
    <rect x="219" y="47" width="2134" height="1377"></rect>
  </clipPath>
</defs>
<polyline clip-path="url(#clip552)" style="stroke:#000000; stroke-linecap:round; stroke-linejoin:round; stroke-width:2; stroke-opacity:0.1; fill:none" points="280.231,1423.18 280.231,47.2441 "></polyline>
<polyline clip-path="url(#clip552)" style="stroke:#000000; stroke-linecap:round; stroke-linejoin:round; stroke-width:2; stroke-opacity:0.1; fill:none" points="950.951,1423.18 950.951,47.2441 "></polyline>
<polyline clip-path="url(#clip552)" style="stroke:#000000; stroke-linecap:round; stroke-linejoin:round; stroke-width:2; stroke-opacity:0.1; fill:none" points="1621.67,1423.18 1621.67,47.2441 "></polyline>
<polyline clip-path="url(#clip552)" style="stroke:#000000; stroke-linecap:round; stroke-linejoin:round; stroke-width:2; stroke-opacity:0.1; fill:none" points="2292.39,1423.18 2292.39,47.2441 "></polyline>
<polyline clip-path="url(#clip550)" style="stroke:#000000; stroke-linecap:round; stroke-linejoin:round; stroke-width:4; stroke-opacity:1; fill:none" points="219.866,1423.18 2352.76,1423.18 "></polyline>
<polyline clip-path="url(#clip550)" style="stroke:#000000; stroke-linecap:round; stroke-linejoin:round; stroke-width:4; stroke-opacity:1; fill:none" points="280.231,1423.18 280.231,1404.28 "></polyline>
<polyline clip-path="url(#clip550)" style="stroke:#000000; stroke-linecap:round; stroke-linejoin:round; stroke-width:4; stroke-opacity:1; fill:none" points="950.951,1423.18 950.951,1404.28 "></polyline>
<polyline clip-path="url(#clip550)" style="stroke:#000000; stroke-linecap:round; stroke-linejoin:round; stroke-width:4; stroke-opacity:1; fill:none" points="1621.67,1423.18 1621.67,1404.28 "></polyline>
<polyline clip-path="url(#clip550)" style="stroke:#000000; stroke-linecap:round; stroke-linejoin:round; stroke-width:4; stroke-opacity:1; fill:none" points="2292.39,1423.18 2292.39,1404.28 "></polyline>
<path clip-path="url(#clip550)" d="M280.231 1454.1 Q276.62 1454.1 274.791 1457.66 Q272.986 1461.2 272.986 1468.33 Q272.986 1475.44 274.791 1479.01 Q276.62 1482.55 280.231 1482.55 Q283.865 1482.55 285.671 1479.01 Q287.5 1475.44 287.5 1468.33 Q287.5 1461.2 285.671 1457.66 Q283.865 1454.1 280.231 1454.1 M280.231 1450.39 Q286.041 1450.39 289.097 1455 Q292.175 1459.58 292.175 1468.33 Q292.175 1477.06 289.097 1481.67 Q286.041 1486.25 280.231 1486.25 Q274.421 1486.25 271.342 1481.67 Q268.287 1477.06 268.287 1468.33 Q268.287 1459.58 271.342 1455 Q274.421 1450.39 280.231 1450.39 Z" fill="#000000" fill-rule="nonzero" fill-opacity="1"></path><path clip-path="url(#clip550)" d="M941.229 1451.02 L959.585 1451.02 L959.585 1454.96 L945.511 1454.96 L945.511 1463.43 Q946.53 1463.08 947.548 1462.92 Q948.567 1462.73 949.585 1462.73 Q955.372 1462.73 958.752 1465.9 Q962.132 1469.08 962.132 1474.49 Q962.132 1480.07 958.659 1483.17 Q955.187 1486.25 948.868 1486.25 Q946.692 1486.25 944.423 1485.88 Q942.178 1485.51 939.771 1484.77 L939.771 1480.07 Q941.854 1481.2 944.076 1481.76 Q946.298 1482.32 948.775 1482.32 Q952.78 1482.32 955.118 1480.21 Q957.456 1478.1 957.456 1474.49 Q957.456 1470.88 955.118 1468.77 Q952.78 1466.67 948.775 1466.67 Q946.9 1466.67 945.025 1467.08 Q943.173 1467.5 941.229 1468.38 L941.229 1451.02 Z" fill="#000000" fill-rule="nonzero" fill-opacity="1"></path><path clip-path="url(#clip550)" d="M1596.36 1481.64 L1604 1481.64 L1604 1455.28 L1595.69 1456.95 L1595.69 1452.69 L1603.95 1451.02 L1608.63 1451.02 L1608.63 1481.64 L1616.27 1481.64 L1616.27 1485.58 L1596.36 1485.58 L1596.36 1481.64 Z" fill="#000000" fill-rule="nonzero" fill-opacity="1"></path><path clip-path="url(#clip550)" d="M1635.71 1454.1 Q1632.1 1454.1 1630.27 1457.66 Q1628.47 1461.2 1628.47 1468.33 Q1628.47 1475.44 1630.27 1479.01 Q1632.1 1482.55 1635.71 1482.55 Q1639.34 1482.55 1641.15 1479.01 Q1642.98 1475.44 1642.98 1468.33 Q1642.98 1461.2 1641.15 1457.66 Q1639.34 1454.1 1635.71 1454.1 M1635.71 1450.39 Q1641.52 1450.39 1644.58 1455 Q1647.65 1459.58 1647.65 1468.33 Q1647.65 1477.06 1644.58 1481.67 Q1641.52 1486.25 1635.71 1486.25 Q1629.9 1486.25 1626.82 1481.67 Q1623.77 1477.06 1623.77 1468.33 Q1623.77 1459.58 1626.82 1455 Q1629.9 1450.39 1635.71 1450.39 Z" fill="#000000" fill-rule="nonzero" fill-opacity="1"></path><path clip-path="url(#clip550)" d="M2267.58 1481.64 L2275.22 1481.64 L2275.22 1455.28 L2266.91 1456.95 L2266.91 1452.69 L2275.17 1451.02 L2279.84 1451.02 L2279.84 1481.64 L2287.48 1481.64 L2287.48 1485.58 L2267.58 1485.58 L2267.58 1481.64 Z" fill="#000000" fill-rule="nonzero" fill-opacity="1"></path><path clip-path="url(#clip550)" d="M2296.97 1451.02 L2315.33 1451.02 L2315.33 1454.96 L2301.26 1454.96 L2301.26 1463.43 Q2302.28 1463.08 2303.29 1462.92 Q2304.31 1462.73 2305.33 1462.73 Q2311.12 1462.73 2314.5 1465.9 Q2317.88 1469.08 2317.88 1474.49 Q2317.88 1480.07 2314.4 1483.17 Q2310.93 1486.25 2304.61 1486.25 Q2302.44 1486.25 2300.17 1485.88 Q2297.92 1485.51 2295.52 1484.77 L2295.52 1480.07 Q2297.6 1481.2 2299.82 1481.76 Q2302.04 1482.32 2304.52 1482.32 Q2308.53 1482.32 2310.86 1480.21 Q2313.2 1478.1 2313.2 1474.49 Q2313.2 1470.88 2310.86 1468.77 Q2308.53 1466.67 2304.52 1466.67 Q2302.65 1466.67 2300.77 1467.08 Q2298.92 1467.5 2296.97 1468.38 L2296.97 1451.02 Z" fill="#000000" fill-rule="nonzero" fill-opacity="1"></path><path clip-path="url(#clip550)" d="M1094.27 1520.52 L1121.58 1520.52 L1121.58 1525.93 L1100.7 1525.93 L1100.7 1539.94 L1119.55 1539.94 L1119.55 1545.35 L1100.7 1545.35 L1100.7 1568.04 L1094.27 1568.04 L1094.27 1520.52 Z" fill="#000000" fill-rule="nonzero" fill-opacity="1"></path><path clip-path="url(#clip550)" d="M1131.51 1518.52 L1137.37 1518.52 L1137.37 1568.04 L1131.51 1568.04 L1131.51 1518.52 Z" fill="#000000" fill-rule="nonzero" fill-opacity="1"></path><path clip-path="url(#clip550)" d="M1163.44 1536.5 Q1158.73 1536.5 1155.99 1540.19 Q1153.25 1543.85 1153.25 1550.25 Q1153.25 1556.65 1155.96 1560.34 Q1158.69 1564 1163.44 1564 Q1168.12 1564 1170.85 1560.31 Q1173.59 1556.62 1173.59 1550.25 Q1173.59 1543.92 1170.85 1540.23 Q1168.12 1536.5 1163.44 1536.5 M1163.44 1531.54 Q1171.08 1531.54 1175.44 1536.5 Q1179.8 1541.47 1179.8 1550.25 Q1179.8 1559 1175.44 1564 Q1171.08 1568.97 1163.44 1568.97 Q1155.77 1568.97 1151.41 1564 Q1147.08 1559 1147.08 1550.25 Q1147.08 1541.47 1151.41 1536.5 Q1155.77 1531.54 1163.44 1531.54 Z" fill="#000000" fill-rule="nonzero" fill-opacity="1"></path><path clip-path="url(#clip550)" d="M1203.32 1536.5 Q1198.61 1536.5 1195.87 1540.19 Q1193.13 1543.85 1193.13 1550.25 Q1193.13 1556.65 1195.84 1560.34 Q1198.58 1564 1203.32 1564 Q1208 1564 1210.73 1560.31 Q1213.47 1556.62 1213.47 1550.25 Q1213.47 1543.92 1210.73 1540.23 Q1208 1536.5 1203.32 1536.5 M1203.32 1531.54 Q1210.96 1531.54 1215.32 1536.5 Q1219.68 1541.47 1219.68 1550.25 Q1219.68 1559 1215.32 1564 Q1210.96 1568.97 1203.32 1568.97 Q1195.65 1568.97 1191.29 1564 Q1186.96 1559 1186.96 1550.25 Q1186.96 1541.47 1191.29 1536.5 Q1195.65 1531.54 1203.32 1531.54 Z" fill="#000000" fill-rule="nonzero" fill-opacity="1"></path><path clip-path="url(#clip550)" d="M1252.84 1537.81 L1252.84 1518.52 L1258.7 1518.52 L1258.7 1568.04 L1252.84 1568.04 L1252.84 1562.7 Q1251 1565.88 1248.16 1567.44 Q1245.36 1568.97 1241.42 1568.97 Q1234.96 1568.97 1230.88 1563.81 Q1226.84 1558.65 1226.84 1550.25 Q1226.84 1541.85 1230.88 1536.69 Q1234.96 1531.54 1241.42 1531.54 Q1245.36 1531.54 1248.16 1533.1 Q1251 1534.62 1252.84 1537.81 M1232.89 1550.25 Q1232.89 1556.71 1235.53 1560.4 Q1238.2 1564.07 1242.85 1564.07 Q1247.5 1564.07 1250.17 1560.4 Q1252.84 1556.71 1252.84 1550.25 Q1252.84 1543.79 1250.17 1540.13 Q1247.5 1536.44 1242.85 1536.44 Q1238.2 1536.44 1235.53 1540.13 Q1232.89 1543.79 1232.89 1550.25 Z" fill="#000000" fill-rule="nonzero" fill-opacity="1"></path><path clip-path="url(#clip550)" d="M1298.17 1525.81 L1298.17 1562.76 L1305.93 1562.76 Q1315.77 1562.76 1320.32 1558.3 Q1324.9 1553.85 1324.9 1544.24 Q1324.9 1534.69 1320.32 1530.26 Q1315.77 1525.81 1305.93 1525.81 L1298.17 1525.81 M1291.74 1520.52 L1304.95 1520.52 Q1318.76 1520.52 1325.22 1526.28 Q1331.68 1532.01 1331.68 1544.24 Q1331.68 1556.52 1325.19 1562.28 Q1318.7 1568.04 1304.95 1568.04 L1291.74 1568.04 L1291.74 1520.52 Z" fill="#000000" fill-rule="nonzero" fill-opacity="1"></path><path clip-path="url(#clip550)" d="M1372.17 1548.76 L1372.17 1551.62 L1345.24 1551.62 Q1345.62 1557.67 1348.87 1560.85 Q1352.15 1564 1357.97 1564 Q1361.35 1564 1364.5 1563.17 Q1367.68 1562.35 1370.8 1560.69 L1370.8 1566.23 Q1367.65 1567.57 1364.34 1568.27 Q1361.03 1568.97 1357.62 1568.97 Q1349.09 1568.97 1344.1 1564 Q1339.13 1559.04 1339.13 1550.57 Q1339.13 1541.82 1343.84 1536.69 Q1348.58 1531.54 1356.6 1531.54 Q1363.8 1531.54 1367.97 1536.18 Q1372.17 1540.8 1372.17 1548.76 M1366.31 1547.04 Q1366.25 1542.23 1363.61 1539.37 Q1361 1536.5 1356.67 1536.5 Q1351.77 1536.5 1348.81 1539.27 Q1345.88 1542.04 1345.43 1547.07 L1366.31 1547.04 Z" fill="#000000" fill-rule="nonzero" fill-opacity="1"></path><path clip-path="url(#clip550)" d="M1387.45 1562.7 L1387.45 1581.6 L1381.56 1581.6 L1381.56 1532.4 L1387.45 1532.4 L1387.45 1537.81 Q1389.29 1534.62 1392.09 1533.1 Q1394.93 1531.54 1398.84 1531.54 Q1405.33 1531.54 1409.38 1536.69 Q1413.45 1541.85 1413.45 1550.25 Q1413.45 1558.65 1409.38 1563.81 Q1405.33 1568.97 1398.84 1568.97 Q1394.93 1568.97 1392.09 1567.44 Q1389.29 1565.88 1387.45 1562.7 M1407.37 1550.25 Q1407.37 1543.79 1404.7 1540.13 Q1402.06 1536.44 1397.41 1536.44 Q1392.76 1536.44 1390.09 1540.13 Q1387.45 1543.79 1387.45 1550.25 Q1387.45 1556.71 1390.09 1560.4 Q1392.76 1564.07 1397.41 1564.07 Q1402.06 1564.07 1404.7 1560.4 Q1407.37 1556.71 1407.37 1550.25 Z" fill="#000000" fill-rule="nonzero" fill-opacity="1"></path><path clip-path="url(#clip550)" d="M1428.95 1522.27 L1428.95 1532.4 L1441.01 1532.4 L1441.01 1536.95 L1428.95 1536.95 L1428.95 1556.3 Q1428.95 1560.66 1430.13 1561.9 Q1431.34 1563.14 1435 1563.14 L1441.01 1563.14 L1441.01 1568.04 L1435 1568.04 Q1428.22 1568.04 1425.64 1565.53 Q1423.06 1562.98 1423.06 1556.3 L1423.06 1536.95 L1418.77 1536.95 L1418.77 1532.4 L1423.06 1532.4 L1423.06 1522.27 L1428.95 1522.27 Z" fill="#000000" fill-rule="nonzero" fill-opacity="1"></path><path clip-path="url(#clip550)" d="M1478.35 1546.53 L1478.35 1568.04 L1472.49 1568.04 L1472.49 1546.72 Q1472.49 1541.66 1470.52 1539.14 Q1468.55 1536.63 1464.6 1536.63 Q1459.86 1536.63 1457.12 1539.65 Q1454.38 1542.68 1454.38 1547.9 L1454.38 1568.04 L1448.49 1568.04 L1448.49 1518.52 L1454.38 1518.52 L1454.38 1537.93 Q1456.48 1534.72 1459.32 1533.13 Q1462.18 1531.54 1465.9 1531.54 Q1472.05 1531.54 1475.2 1535.36 Q1478.35 1539.14 1478.35 1546.53 Z" fill="#000000" fill-rule="nonzero" fill-opacity="1"></path><polyline clip-path="url(#clip552)" style="stroke:#000000; stroke-linecap:round; stroke-linejoin:round; stroke-width:2; stroke-opacity:0.1; fill:none" points="219.866,1384.24 2352.76,1384.24 "></polyline>
<polyline clip-path="url(#clip552)" style="stroke:#000000; stroke-linecap:round; stroke-linejoin:round; stroke-width:2; stroke-opacity:0.1; fill:none" points="219.866,1100.39 2352.76,1100.39 "></polyline>
<polyline clip-path="url(#clip552)" style="stroke:#000000; stroke-linecap:round; stroke-linejoin:round; stroke-width:2; stroke-opacity:0.1; fill:none" points="219.866,816.548 2352.76,816.548 "></polyline>
<polyline clip-path="url(#clip552)" style="stroke:#000000; stroke-linecap:round; stroke-linejoin:round; stroke-width:2; stroke-opacity:0.1; fill:none" points="219.866,532.702 2352.76,532.702 "></polyline>
<polyline clip-path="url(#clip552)" style="stroke:#000000; stroke-linecap:round; stroke-linejoin:round; stroke-width:2; stroke-opacity:0.1; fill:none" points="219.866,248.857 2352.76,248.857 "></polyline>
<polyline clip-path="url(#clip550)" style="stroke:#000000; stroke-linecap:round; stroke-linejoin:round; stroke-width:4; stroke-opacity:1; fill:none" points="219.866,1423.18 219.866,47.2441 "></polyline>
<polyline clip-path="url(#clip550)" style="stroke:#000000; stroke-linecap:round; stroke-linejoin:round; stroke-width:4; stroke-opacity:1; fill:none" points="219.866,1384.24 238.764,1384.24 "></polyline>
<polyline clip-path="url(#clip550)" style="stroke:#000000; stroke-linecap:round; stroke-linejoin:round; stroke-width:4; stroke-opacity:1; fill:none" points="219.866,1100.39 238.764,1100.39 "></polyline>
<polyline clip-path="url(#clip550)" style="stroke:#000000; stroke-linecap:round; stroke-linejoin:round; stroke-width:4; stroke-opacity:1; fill:none" points="219.866,816.548 238.764,816.548 "></polyline>
<polyline clip-path="url(#clip550)" style="stroke:#000000; stroke-linecap:round; stroke-linejoin:round; stroke-width:4; stroke-opacity:1; fill:none" points="219.866,532.702 238.764,532.702 "></polyline>
<polyline clip-path="url(#clip550)" style="stroke:#000000; stroke-linecap:round; stroke-linejoin:round; stroke-width:4; stroke-opacity:1; fill:none" points="219.866,248.857 238.764,248.857 "></polyline>
<path clip-path="url(#clip550)" d="M126.691 1370.04 Q123.08 1370.04 121.251 1373.6 Q119.445 1377.14 119.445 1384.27 Q119.445 1391.38 121.251 1394.94 Q123.08 1398.49 126.691 1398.49 Q130.325 1398.49 132.13 1394.94 Q133.959 1391.38 133.959 1384.27 Q133.959 1377.14 132.13 1373.6 Q130.325 1370.04 126.691 1370.04 M126.691 1366.33 Q132.501 1366.33 135.556 1370.94 Q138.635 1375.52 138.635 1384.27 Q138.635 1393 135.556 1397.61 Q132.501 1402.19 126.691 1402.19 Q120.88 1402.19 117.802 1397.61 Q114.746 1393 114.746 1384.27 Q114.746 1375.52 117.802 1370.94 Q120.88 1366.33 126.691 1366.33 Z" fill="#000000" fill-rule="nonzero" fill-opacity="1"></path><path clip-path="url(#clip550)" d="M146.853 1395.64 L151.737 1395.64 L151.737 1401.52 L146.853 1401.52 L146.853 1395.64 Z" fill="#000000" fill-rule="nonzero" fill-opacity="1"></path><path clip-path="url(#clip550)" d="M171.922 1370.04 Q168.311 1370.04 166.482 1373.6 Q164.677 1377.14 164.677 1384.27 Q164.677 1391.38 166.482 1394.94 Q168.311 1398.49 171.922 1398.49 Q175.556 1398.49 177.362 1394.94 Q179.19 1391.38 179.19 1384.27 Q179.19 1377.14 177.362 1373.6 Q175.556 1370.04 171.922 1370.04 M171.922 1366.33 Q177.732 1366.33 180.788 1370.94 Q183.866 1375.52 183.866 1384.27 Q183.866 1393 180.788 1397.61 Q177.732 1402.19 171.922 1402.19 Q166.112 1402.19 163.033 1397.61 Q159.978 1393 159.978 1384.27 Q159.978 1375.52 163.033 1370.94 Q166.112 1366.33 171.922 1366.33 Z" fill="#000000" fill-rule="nonzero" fill-opacity="1"></path><path clip-path="url(#clip550)" d="M128.288 1086.19 Q124.677 1086.19 122.848 1089.76 Q121.043 1093.3 121.043 1100.43 Q121.043 1107.53 122.848 1111.1 Q124.677 1114.64 128.288 1114.64 Q131.922 1114.64 133.728 1111.1 Q135.556 1107.53 135.556 1100.43 Q135.556 1093.3 133.728 1089.76 Q131.922 1086.19 128.288 1086.19 M128.288 1082.49 Q134.098 1082.49 137.154 1087.09 Q140.232 1091.68 140.232 1100.43 Q140.232 1109.15 137.154 1113.76 Q134.098 1118.34 128.288 1118.34 Q122.478 1118.34 119.399 1113.76 Q116.343 1109.15 116.343 1100.43 Q116.343 1091.68 119.399 1087.09 Q122.478 1082.49 128.288 1082.49 Z" fill="#000000" fill-rule="nonzero" fill-opacity="1"></path><path clip-path="url(#clip550)" d="M148.45 1111.79 L153.334 1111.79 L153.334 1117.67 L148.45 1117.67 L148.45 1111.79 Z" fill="#000000" fill-rule="nonzero" fill-opacity="1"></path><path clip-path="url(#clip550)" d="M167.547 1113.74 L183.866 1113.74 L183.866 1117.67 L161.922 1117.67 L161.922 1113.74 Q164.584 1110.98 169.167 1106.35 Q173.774 1101.7 174.954 1100.36 Q177.2 1097.84 178.079 1096.1 Q178.982 1094.34 178.982 1092.65 Q178.982 1089.9 177.038 1088.16 Q175.116 1086.42 172.014 1086.42 Q169.815 1086.42 167.362 1087.19 Q164.931 1087.95 162.153 1089.5 L162.153 1084.78 Q164.977 1083.65 167.431 1083.07 Q169.885 1082.49 171.922 1082.49 Q177.292 1082.49 180.487 1085.17 Q183.681 1087.86 183.681 1092.35 Q183.681 1094.48 182.871 1096.4 Q182.084 1098.3 179.977 1100.89 Q179.399 1101.56 176.297 1104.78 Q173.195 1107.97 167.547 1113.74 Z" fill="#000000" fill-rule="nonzero" fill-opacity="1"></path><path clip-path="url(#clip550)" d="M126.205 802.346 Q122.593 802.346 120.765 805.911 Q118.959 809.453 118.959 816.582 Q118.959 823.689 120.765 827.253 Q122.593 830.795 126.205 830.795 Q129.839 830.795 131.644 827.253 Q133.473 823.689 133.473 816.582 Q133.473 809.453 131.644 805.911 Q129.839 802.346 126.205 802.346 M126.205 798.643 Q132.015 798.643 135.07 803.249 Q138.149 807.832 138.149 816.582 Q138.149 825.309 135.07 829.915 Q132.015 834.499 126.205 834.499 Q120.394 834.499 117.316 829.915 Q114.26 825.309 114.26 816.582 Q114.26 807.832 117.316 803.249 Q120.394 798.643 126.205 798.643 Z" fill="#000000" fill-rule="nonzero" fill-opacity="1"></path><path clip-path="url(#clip550)" d="M146.366 827.948 L151.251 827.948 L151.251 833.828 L146.366 833.828 L146.366 827.948 Z" fill="#000000" fill-rule="nonzero" fill-opacity="1"></path><path clip-path="url(#clip550)" d="M174.283 803.342 L162.477 821.791 L174.283 821.791 L174.283 803.342 M173.056 799.268 L178.936 799.268 L178.936 821.791 L183.866 821.791 L183.866 825.679 L178.936 825.679 L178.936 833.828 L174.283 833.828 L174.283 825.679 L158.681 825.679 L158.681 821.166 L173.056 799.268 Z" fill="#000000" fill-rule="nonzero" fill-opacity="1"></path><path clip-path="url(#clip550)" d="M126.529 518.501 Q122.918 518.501 121.089 522.066 Q119.283 525.607 119.283 532.737 Q119.283 539.843 121.089 543.408 Q122.918 546.95 126.529 546.95 Q130.163 546.95 131.968 543.408 Q133.797 539.843 133.797 532.737 Q133.797 525.607 131.968 522.066 Q130.163 518.501 126.529 518.501 M126.529 514.797 Q132.339 514.797 135.394 519.404 Q138.473 523.987 138.473 532.737 Q138.473 541.464 135.394 546.07 Q132.339 550.653 126.529 550.653 Q120.718 550.653 117.64 546.07 Q114.584 541.464 114.584 532.737 Q114.584 523.987 117.64 519.404 Q120.718 514.797 126.529 514.797 Z" fill="#000000" fill-rule="nonzero" fill-opacity="1"></path><path clip-path="url(#clip550)" d="M146.691 544.103 L151.575 544.103 L151.575 549.982 L146.691 549.982 L146.691 544.103 Z" fill="#000000" fill-rule="nonzero" fill-opacity="1"></path><path clip-path="url(#clip550)" d="M172.339 530.839 Q169.19 530.839 167.339 532.991 Q165.51 535.144 165.51 538.894 Q165.51 542.621 167.339 544.797 Q169.19 546.95 172.339 546.95 Q175.487 546.95 177.315 544.797 Q179.167 542.621 179.167 538.894 Q179.167 535.144 177.315 532.991 Q175.487 530.839 172.339 530.839 M181.621 516.186 L181.621 520.445 Q179.862 519.612 178.056 519.172 Q176.274 518.732 174.514 518.732 Q169.885 518.732 167.431 521.857 Q165.001 524.982 164.653 531.302 Q166.019 529.288 168.079 528.223 Q170.139 527.135 172.616 527.135 Q177.825 527.135 180.834 530.306 Q183.866 533.454 183.866 538.894 Q183.866 544.218 180.718 547.436 Q177.57 550.653 172.339 550.653 Q166.343 550.653 163.172 546.07 Q160.001 541.464 160.001 532.737 Q160.001 524.542 163.89 519.681 Q167.778 514.797 174.329 514.797 Q176.089 514.797 177.871 515.144 Q179.676 515.492 181.621 516.186 Z" fill="#000000" fill-rule="nonzero" fill-opacity="1"></path><path clip-path="url(#clip550)" d="M126.783 234.655 Q123.172 234.655 121.343 238.22 Q119.538 241.762 119.538 248.891 Q119.538 255.998 121.343 259.563 Q123.172 263.104 126.783 263.104 Q130.417 263.104 132.223 259.563 Q134.052 255.998 134.052 248.891 Q134.052 241.762 132.223 238.22 Q130.417 234.655 126.783 234.655 M126.783 230.952 Q132.593 230.952 135.649 235.558 Q138.728 240.142 138.728 248.891 Q138.728 257.618 135.649 262.225 Q132.593 266.808 126.783 266.808 Q120.973 266.808 117.894 262.225 Q114.839 257.618 114.839 248.891 Q114.839 240.142 117.894 235.558 Q120.973 230.952 126.783 230.952 Z" fill="#000000" fill-rule="nonzero" fill-opacity="1"></path><path clip-path="url(#clip550)" d="M146.945 260.257 L151.829 260.257 L151.829 266.137 L146.945 266.137 L146.945 260.257 Z" fill="#000000" fill-rule="nonzero" fill-opacity="1"></path><path clip-path="url(#clip550)" d="M172.014 249.725 Q168.681 249.725 166.76 251.507 Q164.862 253.29 164.862 256.415 Q164.862 259.54 166.76 261.322 Q168.681 263.104 172.014 263.104 Q175.348 263.104 177.269 261.322 Q179.19 259.516 179.19 256.415 Q179.19 253.29 177.269 251.507 Q175.371 249.725 172.014 249.725 M167.339 247.734 Q164.329 246.993 162.64 244.933 Q160.973 242.873 160.973 239.91 Q160.973 235.767 163.913 233.359 Q166.876 230.952 172.014 230.952 Q177.176 230.952 180.116 233.359 Q183.056 235.767 183.056 239.91 Q183.056 242.873 181.366 244.933 Q179.7 246.993 176.714 247.734 Q180.093 248.521 181.968 250.813 Q183.866 253.104 183.866 256.415 Q183.866 261.438 180.788 264.123 Q177.732 266.808 172.014 266.808 Q166.297 266.808 163.218 264.123 Q160.163 261.438 160.163 256.415 Q160.163 253.104 162.061 250.813 Q163.959 248.521 167.339 247.734 M165.626 240.35 Q165.626 243.035 167.292 244.54 Q168.982 246.044 172.014 246.044 Q175.024 246.044 176.714 244.54 Q178.426 243.035 178.426 240.35 Q178.426 237.665 176.714 236.16 Q175.024 234.655 172.014 234.655 Q168.982 234.655 167.292 236.16 Q165.626 237.665 165.626 240.35 Z" fill="#000000" fill-rule="nonzero" fill-opacity="1"></path><path clip-path="url(#clip550)" d="M16.4842 1020.92 L16.4842 993.612 L21.895 993.612 L21.895 1014.49 L35.8996 1014.49 L35.8996 995.649 L41.3104 995.649 L41.3104 1014.49 L64.0042 1014.49 L64.0042 1020.92 L16.4842 1020.92 Z" fill="#000000" fill-rule="nonzero" fill-opacity="1"></path><path clip-path="url(#clip550)" d="M46.0847 973.464 Q46.0847 980.562 47.7079 983.299 Q49.3312 986.037 53.2461 986.037 Q56.3653 986.037 58.2114 984 Q60.0256 981.931 60.0256 978.398 Q60.0256 973.528 56.5881 970.6 Q53.1188 967.64 47.3897 967.64 L46.0847 967.64 L46.0847 973.464 M43.6657 961.783 L64.0042 961.783 L64.0042 967.64 L58.5933 967.64 Q61.8398 969.645 63.3994 972.637 Q64.9272 975.629 64.9272 979.957 Q64.9272 985.432 61.8716 988.678 Q58.7843 991.893 53.6281 991.893 Q47.6125 991.893 44.5569 987.883 Q41.5014 983.841 41.5014 975.852 L41.5014 967.64 L40.9285 967.64 Q36.8862 967.64 34.6901 970.313 Q32.4621 972.955 32.4621 977.761 Q32.4621 980.817 33.1941 983.713 Q33.9262 986.61 35.3903 989.283 L29.9795 989.283 Q28.7381 986.069 28.1334 983.045 Q27.4968 980.021 27.4968 977.157 Q27.4968 969.422 31.5072 965.603 Q35.5176 961.783 43.6657 961.783 Z" fill="#000000" fill-rule="nonzero" fill-opacity="1"></path><path clip-path="url(#clip550)" d="M28.3562 949.72 L28.3562 943.864 L64.0042 943.864 L64.0042 949.72 L28.3562 949.72 M14.479 949.72 L14.479 943.864 L21.895 943.864 L21.895 949.72 L14.479 949.72 Z" fill="#000000" fill-rule="nonzero" fill-opacity="1"></path><path clip-path="url(#clip550)" d="M14.479 931.61 L14.479 925.753 L64.0042 925.753 L64.0042 931.61 L14.479 931.61 Z" fill="#000000" fill-rule="nonzero" fill-opacity="1"></path><path clip-path="url(#clip550)" d="M49.9359 914.104 L28.3562 914.104 L28.3562 908.248 L49.7131 908.248 Q54.7739 908.248 57.3202 906.274 Q59.8346 904.301 59.8346 900.354 Q59.8346 895.612 56.8109 892.875 Q53.7872 890.106 48.5673 890.106 L28.3562 890.106 L28.3562 884.249 L64.0042 884.249 L64.0042 890.106 L58.5296 890.106 Q61.7762 892.238 63.3676 895.071 Q64.9272 897.872 64.9272 901.596 Q64.9272 907.739 61.1078 910.921 Q57.2883 914.104 49.9359 914.104 M27.4968 899.368 L27.4968 899.368 Z" fill="#000000" fill-rule="nonzero" fill-opacity="1"></path><path clip-path="url(#clip550)" d="M33.8307 851.529 Q33.2578 852.516 33.0032 853.694 Q32.7167 854.84 32.7167 856.24 Q32.7167 861.205 35.9632 863.879 Q39.1779 866.521 45.2253 866.521 L64.0042 866.521 L64.0042 872.409 L28.3562 872.409 L28.3562 866.521 L33.8944 866.521 Q30.6479 864.675 29.0883 861.714 Q27.4968 858.754 27.4968 854.521 Q27.4968 853.916 27.5923 853.184 Q27.656 852.452 27.8151 851.561 L33.8307 851.529 Z" fill="#000000" fill-rule="nonzero" fill-opacity="1"></path><path clip-path="url(#clip550)" d="M44.7161 816.327 L47.5806 816.327 L47.5806 843.254 Q53.6281 842.872 56.8109 839.625 Q59.9619 836.347 59.9619 830.523 Q59.9619 827.149 59.1344 823.998 Q58.3069 820.815 56.6518 817.696 L62.1899 817.696 Q63.5267 820.847 64.227 824.157 Q64.9272 827.467 64.9272 830.873 Q64.9272 839.403 59.9619 844.4 Q54.9967 849.365 46.5303 849.365 Q37.7774 849.365 32.6531 844.654 Q27.4968 839.912 27.4968 831.891 Q27.4968 824.698 32.1438 820.528 Q36.7589 816.327 44.7161 816.327 M42.9973 822.183 Q38.1912 822.247 35.3266 824.889 Q32.4621 827.499 32.4621 831.827 Q32.4621 836.729 35.2312 839.689 Q38.0002 842.617 43.0292 843.063 L42.9973 822.183 Z" fill="#000000" fill-rule="nonzero" fill-opacity="1"></path><path clip-path="url(#clip550)" d="M21.7677 779.31 L39.6235 779.31 L39.6235 771.226 Q39.6235 766.738 37.3 764.287 Q34.9765 761.837 30.6797 761.837 Q26.4147 761.837 24.0912 764.287 Q21.7677 766.738 21.7677 771.226 L21.7677 779.31 M16.4842 785.74 L16.4842 771.226 Q16.4842 763.237 20.1126 759.163 Q23.7092 755.057 30.6797 755.057 Q37.7138 755.057 41.3104 759.163 Q44.907 763.237 44.907 771.226 L44.907 779.31 L64.0042 779.31 L64.0042 785.74 L16.4842 785.74 Z" fill="#000000" fill-rule="nonzero" fill-opacity="1"></path><path clip-path="url(#clip550)" d="M33.8307 727.175 Q33.2578 728.162 33.0032 729.34 Q32.7167 730.485 32.7167 731.886 Q32.7167 736.851 35.9632 739.525 Q39.1779 742.167 45.2253 742.167 L64.0042 742.167 L64.0042 748.055 L28.3562 748.055 L28.3562 742.167 L33.8944 742.167 Q30.6479 740.32 29.0883 737.36 Q27.4968 734.4 27.4968 730.167 Q27.4968 729.562 27.5923 728.83 Q27.656 728.098 27.8151 727.207 L33.8307 727.175 Z" fill="#000000" fill-rule="nonzero" fill-opacity="1"></path><path clip-path="url(#clip550)" d="M32.4621 708.651 Q32.4621 713.362 36.1542 716.099 Q39.8145 718.836 46.212 718.836 Q52.6095 718.836 56.3017 716.131 Q59.9619 713.394 59.9619 708.651 Q59.9619 703.972 56.2698 701.235 Q52.5777 698.498 46.212 698.498 Q39.8781 698.498 36.186 701.235 Q32.4621 703.972 32.4621 708.651 M27.4968 708.651 Q27.4968 701.012 32.4621 696.652 Q37.4273 692.291 46.212 692.291 Q54.9649 692.291 59.9619 696.652 Q64.9272 701.012 64.9272 708.651 Q64.9272 716.322 59.9619 720.682 Q54.9649 725.011 46.212 725.011 Q37.4273 725.011 32.4621 720.682 Q27.4968 716.322 27.4968 708.651 Z" fill="#000000" fill-rule="nonzero" fill-opacity="1"></path><path clip-path="url(#clip550)" d="M46.212 656.993 Q39.7508 656.993 36.0905 659.667 Q32.3984 662.309 32.3984 666.956 Q32.3984 671.603 36.0905 674.276 Q39.7508 676.918 46.212 676.918 Q52.6732 676.918 56.3653 674.276 Q60.0256 671.603 60.0256 666.956 Q60.0256 662.309 56.3653 659.667 Q52.6732 656.993 46.212 656.993 M33.7671 676.918 Q30.5842 675.072 29.0564 672.271 Q27.4968 669.438 27.4968 665.523 Q27.4968 659.03 32.6531 654.988 Q37.8093 650.914 46.212 650.914 Q54.6147 650.914 59.771 654.988 Q64.9272 659.03 64.9272 665.523 Q64.9272 669.438 63.3994 672.271 Q61.8398 675.072 58.657 676.918 L64.0042 676.918 L64.0042 682.806 L14.479 682.806 L14.479 676.918 L33.7671 676.918 Z" fill="#000000" fill-rule="nonzero" fill-opacity="1"></path><path clip-path="url(#clip550)" d="M46.0847 625.006 Q46.0847 632.103 47.7079 634.841 Q49.3312 637.578 53.2461 637.578 Q56.3653 637.578 58.2114 635.541 Q60.0256 633.472 60.0256 629.939 Q60.0256 625.069 56.5881 622.141 Q53.1188 619.181 47.3897 619.181 L46.0847 619.181 L46.0847 625.006 M43.6657 613.325 L64.0042 613.325 L64.0042 619.181 L58.5933 619.181 Q61.8398 621.186 63.3994 624.178 Q64.9272 627.17 64.9272 631.499 Q64.9272 636.973 61.8716 640.22 Q58.7843 643.434 53.6281 643.434 Q47.6125 643.434 44.5569 639.424 Q41.5014 635.382 41.5014 627.393 L41.5014 619.181 L40.9285 619.181 Q36.8862 619.181 34.6901 621.855 Q32.4621 624.496 32.4621 629.303 Q32.4621 632.358 33.1941 635.254 Q33.9262 638.151 35.3903 640.824 L29.9795 640.824 Q28.7381 637.61 28.1334 634.586 Q27.4968 631.562 27.4968 628.698 Q27.4968 620.963 31.5072 617.144 Q35.5176 613.325 43.6657 613.325 Z" fill="#000000" fill-rule="nonzero" fill-opacity="1"></path><path clip-path="url(#clip550)" d="M46.212 575.671 Q39.7508 575.671 36.0905 578.345 Q32.3984 580.987 32.3984 585.634 Q32.3984 590.281 36.0905 592.954 Q39.7508 595.596 46.212 595.596 Q52.6732 595.596 56.3653 592.954 Q60.0256 590.281 60.0256 585.634 Q60.0256 580.987 56.3653 578.345 Q52.6732 575.671 46.212 575.671 M33.7671 595.596 Q30.5842 593.75 29.0564 590.949 Q27.4968 588.116 27.4968 584.201 Q27.4968 577.708 32.6531 573.666 Q37.8093 569.592 46.212 569.592 Q54.6147 569.592 59.771 573.666 Q64.9272 577.708 64.9272 584.201 Q64.9272 588.116 63.3994 590.949 Q61.8398 593.75 58.657 595.596 L64.0042 595.596 L64.0042 601.484 L14.479 601.484 L14.479 595.596 L33.7671 595.596 Z" fill="#000000" fill-rule="nonzero" fill-opacity="1"></path><path clip-path="url(#clip550)" d="M28.3562 559.884 L28.3562 554.028 L64.0042 554.028 L64.0042 559.884 L28.3562 559.884 M14.479 559.884 L14.479 554.028 L21.895 554.028 L21.895 559.884 L14.479 559.884 Z" fill="#000000" fill-rule="nonzero" fill-opacity="1"></path><path clip-path="url(#clip550)" d="M14.479 541.774 L14.479 535.918 L64.0042 535.918 L64.0042 541.774 L14.479 541.774 Z" fill="#000000" fill-rule="nonzero" fill-opacity="1"></path><path clip-path="url(#clip550)" d="M28.3562 523.664 L28.3562 517.807 L64.0042 517.807 L64.0042 523.664 L28.3562 523.664 M14.479 523.664 L14.479 517.807 L21.895 517.807 L21.895 523.664 L14.479 523.664 Z" fill="#000000" fill-rule="nonzero" fill-opacity="1"></path><path clip-path="url(#clip550)" d="M18.2347 499.76 L28.3562 499.76 L28.3562 487.697 L32.9077 487.697 L32.9077 499.76 L52.2594 499.76 Q56.6199 499.76 57.8613 498.583 Q59.1026 497.373 59.1026 493.713 L59.1026 487.697 L64.0042 487.697 L64.0042 493.713 Q64.0042 500.492 61.4897 503.071 Q58.9434 505.649 52.2594 505.649 L32.9077 505.649 L32.9077 509.946 L28.3562 509.946 L28.3562 505.649 L18.2347 505.649 L18.2347 499.76 Z" fill="#000000" fill-rule="nonzero" fill-opacity="1"></path><path clip-path="url(#clip550)" d="M67.3143 465.163 Q73.68 467.645 75.6216 470.001 Q77.5631 472.356 77.5631 476.303 L77.5631 480.982 L72.6615 480.982 L72.6615 477.544 Q72.6615 475.125 71.5157 473.788 Q70.3699 472.452 66.1048 470.828 L63.4312 469.778 L28.3562 484.196 L28.3562 477.99 L56.238 466.85 L28.3562 455.71 L28.3562 449.503 L67.3143 465.163 Z" fill="#000000" fill-rule="nonzero" fill-opacity="1"></path><polyline clip-path="url(#clip552)" style="stroke:#009af9; stroke-linecap:round; stroke-linejoin:round; stroke-width:10; stroke-opacity:1; fill:none" points="280.231,1384.24 293.645,1384.24 307.06,1384.24 320.474,1384.24 333.889,1384.24 347.303,1384.24 360.717,1384.24 374.132,1384.24 387.546,1384.24 400.961,1384.24 414.375,1384.24 427.789,1384.24 441.204,1384.24 454.618,1384.24 468.033,1384.24 481.447,1384.24 494.861,1384.24 508.276,1384.24 521.69,1384.24 535.105,1384.24 548.519,1384.24 561.933,1384.24 575.348,1384.24 588.762,1384.24 602.177,1384.24 615.591,1384.24 629.005,1384.24 642.42,1384.24 655.834,1384.24 669.249,1384.24 682.663,1384.24 696.077,1384.24 709.492,1384.24 722.906,1384.24 736.321,1384.24 749.735,1384.24 763.149,1384.24 776.564,1384.24 789.978,1384.24 803.393,1384.24 816.807,1384.24 830.221,1384.24 843.636,1384.24 857.05,1384.24 870.465,1384.24 883.879,1384.24 897.293,1384.24 910.708,1384.24 924.122,1384.24 937.537,1384.24 950.951,1384.24 964.365,1384.24 977.78,1384.24 991.194,1384.24 1004.61,1384.24 1018.02,1384.24 1031.44,1384.24 1044.85,1384.24 1058.27,1384.24 1071.68,1383.66 1085.1,1381.46 1098.51,1377.68 1111.92,1372.41 1125.34,1365.69 1138.75,1357.61 1152.17,1348.23 1165.58,1337.59 1179,1325.77 1192.41,1312.81 1205.82,1298.77 1219.24,1283.69 1232.65,1267.63 1246.07,1250.62 1259.48,1232.73 1272.9,1213.97 1286.31,1194.4 1299.73,1174.05 1313.14,1152.97 1326.55,1131.18 1339.97,1108.71 1353.38,1085.61 1366.8,1061.9 1380.21,1037.62 1393.63,1012.78 1407.04,987.422 1420.46,961.567 1433.87,935.24 1447.28,908.472 1460.7,881.954 1474.11,856.14 1487.53,831.007 1500.94,806.537 1514.36,782.712 1527.77,759.513 1541.18,736.923 1554.6,714.924 1568.01,693.502 1581.43,672.639 1594.84,652.32 1608.26,632.532 1621.67,613.258 1635.09,594.486 1648.5,576.202 1661.91,558.393 1675.33,541.046 1688.74,524.149 1702.16,507.69 1715.57,491.658 1728.99,476.041 1742.4,460.829 1755.82,446.011 1769.23,431.576 1782.64,417.516 1796.06,403.82 1809.47,390.479 1822.89,377.484 1836.3,364.826 1849.72,352.497 1863.13,340.488 1876.54,328.792 1889.96,317.401 1903.37,306.306 1916.79,295.501 1930.2,284.978 1943.62,274.731 1957.03,264.753 1970.45,255.037 1983.86,245.576 1997.27,236.365 2010.69,227.398 2024.1,218.668 2037.52,210.17 2050.93,201.899 2064.35,193.848 2077.76,186.013 2091.18,178.389 2104.59,170.97 2118,163.751 2131.42,156.729 2144.83,149.898 2158.25,143.254 2171.66,136.793 2185.08,130.509 2198.49,124.4 2211.9,118.461 2225.32,112.688 2238.73,107.078 2252.15,101.626 2265.56,96.3287 2278.98,91.1832 2292.39,86.1857 "></polyline>
</svg>