<svg xmlns="http://www.w3.org/2000/svg" xmlns:xlink="http://www.w3.org/1999/xlink" width="600" height="400" viewBox="0 0 2400 1600">
<defs>
  <clipPath id="clip380">
    <rect x="0" y="0" width="2400" height="1600"></rect>
  </clipPath>
</defs>
<path clip-path="url(#clip380)" d="M0 1600 L2400 1600 L2400 0 L0 0  Z" fill="#ffffff" fill-rule="evenodd" fill-opacity="1"></path>
<defs>
  <clipPath id="clip381">
    <rect x="480" y="0" width="1681" height="1600"></rect>
  </clipPath>
</defs>
<path clip-path="url(#clip380)" d="M219.866 1423.18 L2352.76 1423.18 L2352.76 47.2441 L219.866 47.2441  Z" fill="#ffffff" fill-rule="evenodd" fill-opacity="1"></path>
<defs>
  <clipPath id="clip382">
    <rect x="219" y="47" width="2134" height="1377"></rect>
  </clipPath>
</defs>
<polyline clip-path="url(#clip382)" style="stroke:#000000; stroke-linecap:round; stroke-linejoin:round; stroke-width:2; stroke-opacity:0.1; fill:none" points="280.231,1423.18 280.231,47.2441 "></polyline>
<polyline clip-path="url(#clip382)" style="stroke:#000000; stroke-linecap:round; stroke-linejoin:round; stroke-width:2; stroke-opacity:0.1; fill:none" points="950.951,1423.18 950.951,47.2441 "></polyline>
<polyline clip-path="url(#clip382)" style="stroke:#000000; stroke-linecap:round; stroke-linejoin:round; stroke-width:2; stroke-opacity:0.1; fill:none" points="1621.67,1423.18 1621.67,47.2441 "></polyline>
<polyline clip-path="url(#clip382)" style="stroke:#000000; stroke-linecap:round; stroke-linejoin:round; stroke-width:2; stroke-opacity:0.1; fill:none" points="2292.39,1423.18 2292.39,47.2441 "></polyline>
<polyline clip-path="url(#clip380)" style="stroke:#000000; stroke-linecap:round; stroke-linejoin:round; stroke-width:4; stroke-opacity:1; fill:none" points="219.866,1423.18 2352.76,1423.18 "></polyline>
<polyline clip-path="url(#clip380)" style="stroke:#000000; stroke-linecap:round; stroke-linejoin:round; stroke-width:4; stroke-opacity:1; fill:none" points="280.231,1423.18 280.231,1404.28 "></polyline>
<polyline clip-path="url(#clip380)" style="stroke:#000000; stroke-linecap:round; stroke-linejoin:round; stroke-width:4; stroke-opacity:1; fill:none" points="950.951,1423.18 950.951,1404.28 "></polyline>
<polyline clip-path="url(#clip380)" style="stroke:#000000; stroke-linecap:round; stroke-linejoin:round; stroke-width:4; stroke-opacity:1; fill:none" points="1621.67,1423.18 1621.67,1404.28 "></polyline>
<polyline clip-path="url(#clip380)" style="stroke:#000000; stroke-linecap:round; stroke-linejoin:round; stroke-width:4; stroke-opacity:1; fill:none" points="2292.39,1423.18 2292.39,1404.28 "></polyline>
<path clip-path="url(#clip380)" d="M280.231 1454.1 Q276.62 1454.1 274.791 1457.66 Q272.986 1461.2 272.986 1468.33 Q272.986 1475.44 274.791 1479.01 Q276.62 1482.55 280.231 1482.55 Q283.865 1482.55 285.671 1479.01 Q287.5 1475.44 287.5 1468.33 Q287.5 1461.2 285.671 1457.66 Q283.865 1454.1 280.231 1454.1 M280.231 1450.39 Q286.041 1450.39 289.097 1455 Q292.175 1459.58 292.175 1468.33 Q292.175 1477.06 289.097 1481.67 Q286.041 1486.25 280.231 1486.25 Q274.421 1486.25 271.342 1481.67 Q268.287 1477.06 268.287 1468.33 Q268.287 1459.58 271.342 1455 Q274.421 1450.39 280.231 1450.39 Z" fill="#000000" fill-rule="evenodd" fill-opacity="1"></path><path clip-path="url(#clip380)" d="M941.229 1451.02 L959.585 1451.02 L959.585 1454.96 L945.511 1454.96 L945.511 1463.43 Q946.53 1463.08 947.548 1462.92 Q948.567 1462.73 949.585 1462.73 Q955.372 1462.73 958.752 1465.9 Q962.132 1469.08 962.132 1474.49 Q962.132 1480.07 958.659 1483.17 Q955.187 1486.25 948.868 1486.25 Q946.692 1486.25 944.423 1485.88 Q942.178 1485.51 939.771 1484.77 L939.771 1480.07 Q941.854 1481.2 944.076 1481.76 Q946.298 1482.32 948.775 1482.32 Q952.78 1482.32 955.118 1480.21 Q957.456 1478.1 957.456 1474.49 Q957.456 1470.88 955.118 1468.77 Q952.78 1466.67 948.775 1466.67 Q946.9 1466.67 945.025 1467.08 Q943.173 1467.5 941.229 1468.38 L941.229 1451.02 Z" fill="#000000" fill-rule="evenodd" fill-opacity="1"></path><path clip-path="url(#clip380)" d="M1596.36 1481.64 L1604 1481.64 L1604 1455.28 L1595.69 1456.95 L1595.69 1452.69 L1603.95 1451.02 L1608.63 1451.02 L1608.63 1481.64 L1616.27 1481.64 L1616.27 1485.58 L1596.36 1485.58 L1596.36 1481.64 Z" fill="#000000" fill-rule="evenodd" fill-opacity="1"></path><path clip-path="url(#clip380)" d="M1635.71 1454.1 Q1632.1 1454.1 1630.27 1457.66 Q1628.47 1461.2 1628.47 1468.33 Q1628.47 1475.44 1630.27 1479.01 Q1632.1 1482.55 1635.71 1482.55 Q1639.34 1482.55 1641.15 1479.01 Q1642.98 1475.44 1642.98 1468.33 Q1642.98 1461.2 1641.15 1457.66 Q1639.34 1454.1 1635.71 1454.1 M1635.71 1450.39 Q1641.52 1450.39 1644.58 1455 Q1647.65 1459.58 1647.65 1468.33 Q1647.65 1477.06 1644.58 1481.67 Q1641.52 1486.25 1635.71 1486.25 Q1629.9 1486.25 1626.82 1481.67 Q1623.77 1477.06 1623.77 1468.33 Q1623.77 1459.58 1626.82 1455 Q1629.9 1450.39 1635.71 1450.39 Z" fill="#000000" fill-rule="evenodd" fill-opacity="1"></path><path clip-path="url(#clip380)" d="M2267.58 1481.64 L2275.22 1481.64 L2275.22 1455.28 L2266.91 1456.95 L2266.91 1452.69 L2275.17 1451.02 L2279.84 1451.02 L2279.84 1481.64 L2287.48 1481.64 L2287.48 1485.58 L2267.58 1485.58 L2267.58 1481.64 Z" fill="#000000" fill-rule="evenodd" fill-opacity="1"></path><path clip-path="url(#clip380)" d="M2296.97 1451.02 L2315.33 1451.02 L2315.33 1454.96 L2301.26 1454.96 L2301.26 1463.43 Q2302.28 1463.08 2303.29 1462.92 Q2304.31 1462.73 2305.33 1462.73 Q2311.12 1462.73 2314.5 1465.9 Q2317.88 1469.08 2317.88 1474.49 Q2317.88 1480.07 2314.4 1483.17 Q2310.93 1486.25 2304.61 1486.25 Q2302.44 1486.25 2300.17 1485.88 Q2297.92 1485.51 2295.52 1484.77 L2295.52 1480.07 Q2297.6 1481.2 2299.82 1481.76 Q2302.04 1482.32 2304.52 1482.32 Q2308.53 1482.32 2310.86 1480.21 Q2313.2 1478.1 2313.2 1474.49 Q2313.2 1470.88 2310.86 1468.77 Q2308.53 1466.67 2304.52 1466.67 Q2302.65 1466.67 2300.77 1467.08 Q2298.92 1467.5 2296.97 1468.38 L2296.97 1451.02 Z" fill="#000000" fill-rule="evenodd" fill-opacity="1"></path><path clip-path="url(#clip380)" d="M1094.27 1520.52 L1121.58 1520.52 L1121.58 1525.93 L1100.7 1525.93 L1100.7 1539.94 L1119.55 1539.94 L1119.55 1545.35 L1100.7 1545.35 L1100.7 1568.04 L1094.27 1568.04 L1094.27 1520.52 Z" fill="#000000" fill-rule="evenodd" fill-opacity="1"></path><path clip-path="url(#clip380)" d="M1131.51 1518.52 L1137.37 1518.52 L1137.37 1568.04 L1131.51 1568.04 L1131.51 1518.52 Z" fill="#000000" fill-rule="evenodd" fill-opacity="1"></path><path clip-path="url(#clip380)" d="M1163.44 1536.5 Q1158.73 1536.5 1155.99 1540.19 Q1153.25 1543.85 1153.25 1550.25 Q1153.25 1556.65 1155.96 1560.34 Q1158.69 1564 1163.44 1564 Q1168.12 1564 1170.85 1560.31 Q1173.59 1556.62 1173.59 1550.25 Q1173.59 1543.92 1170.85 1540.23 Q1168.12 1536.5 1163.44 1536.5 M1163.44 1531.54 Q1171.08 1531.54 1175.44 1536.5 Q1179.8 1541.47 1179.8 1550.25 Q1179.8 1559 1175.44 1564 Q1171.08 1568.97 1163.44 1568.97 Q1155.77 1568.97 1151.41 1564 Q1147.08 1559 1147.08 1550.25 Q1147.08 1541.47 1151.41 1536.5 Q1155.77 1531.54 1163.44 1531.54 Z" fill="#000000" fill-rule="evenodd" fill-opacity="1"></path><path clip-path="url(#clip380)" d="M1203.32 1536.5 Q1198.61 1536.5 1195.87 1540.19 Q1193.13 1543.85 1193.13 1550.25 Q1193.13 1556.65 1195.84 1560.34 Q1198.58 1564 1203.32 1564 Q1208 1564 1210.73 1560.31 Q1213.47 1556.62 1213.47 1550.25 Q1213.47 1543.92 1210.73 1540.23 Q1208 1536.5 1203.32 1536.5 M1203.32 1531.54 Q1210.96 1531.54 1215.32 1536.5 Q1219.68 1541.47 1219.68 1550.25 Q1219.68 1559 1215.32 1564 Q1210.96 1568.97 1203.32 1568.97 Q1195.65 1568.97 1191.29 1564 Q1186.96 1559 1186.96 1550.25 Q1186.96 1541.47 1191.29 1536.5 Q1195.65 1531.54 1203.32 1531.54 Z" fill="#000000" fill-rule="evenodd" fill-opacity="1"></path><path clip-path="url(#clip380)" d="M1252.84 1537.81 L1252.84 1518.52 L1258.7 1518.52 L1258.7 1568.04 L1252.84 1568.04 L1252.84 1562.7 Q1251 1565.88 1248.16 1567.44 Q1245.36 1568.97 1241.42 1568.97 Q1234.96 1568.97 1230.88 1563.81 Q1226.84 1558.65 1226.84 1550.25 Q1226.84 1541.85 1230.88 1536.69 Q1234.96 1531.54 1241.42 1531.54 Q1245.36 1531.54 1248.16 1533.1 Q1251 1534.62 1252.84 1537.81 M1232.89 1550.25 Q1232.89 1556.71 1235.53 1560.4 Q1238.2 1564.07 1242.85 1564.07 Q1247.5 1564.07 1250.17 1560.4 Q1252.84 1556.71 1252.84 1550.25 Q1252.84 1543.79 1250.17 1540.13 Q1247.5 1536.44 1242.85 1536.44 Q1238.2 1536.44 1235.53 1540.13 Q1232.89 1543.79 1232.89 1550.25 Z" fill="#000000" fill-rule="evenodd" fill-opacity="1"></path><path clip-path="url(#clip380)" d="M1298.17 1525.81 L1298.17 1562.76 L1305.93 1562.76 Q1315.77 1562.76 1320.32 1558.3 Q1324.9 1553.85 1324.9 1544.24 Q1324.9 1534.69 1320.32 1530.26 Q1315.77 1525.81 1305.93 1525.81 L1298.17 1525.81 M1291.74 1520.52 L1304.95 1520.52 Q1318.76 1520.52 1325.22 1526.28 Q1331.68 1532.01 1331.68 1544.24 Q1331.68 1556.52 1325.19 1562.28 Q1318.7 1568.04 1304.95 1568.04 L1291.74 1568.04 L1291.74 1520.52 Z" fill="#000000" fill-rule="evenodd" fill-opacity="1"></path><path clip-path="url(#clip380)" d="M1372.17 1548.76 L1372.17 1551.62 L1345.24 1551.62 Q1345.62 1557.67 1348.87 1560.85 Q1352.15 1564 1357.97 1564 Q1361.35 1564 1364.5 1563.17 Q1367.68 1562.35 1370.8 1560.69 L1370.8 1566.23 Q1367.65 1567.57 1364.34 1568.27 Q1361.03 1568.97 1357.62 1568.97 Q1349.09 1568.97 1344.1 1564 Q1339.13 1559.04 1339.13 1550.57 Q1339.13 1541.82 1343.84 1536.69 Q1348.58 1531.54 1356.6 1531.54 Q1363.8 1531.54 1367.97 1536.18 Q1372.17 1540.8 1372.17 1548.76 M1366.31 1547.04 Q1366.25 1542.23 1363.61 1539.37 Q1361 1536.5 1356.67 1536.5 Q1351.77 1536.5 1348.81 1539.27 Q1345.88 1542.04 1345.43 1547.07 L1366.31 1547.04 Z" fill="#000000" fill-rule="evenodd" fill-opacity="1"></path><path clip-path="url(#clip380)" d="M1387.45 1562.7 L1387.45 1581.6 L1381.56 1581.6 L1381.56 1532.4 L1387.45 1532.4 L1387.45 1537.81 Q1389.29 1534.62 1392.09 1533.1 Q1394.93 1531.54 1398.84 1531.54 Q1405.33 1531.54 1409.38 1536.69 Q1413.45 1541.85 1413.45 1550.25 Q1413.45 1558.65 1409.38 1563.81 Q1405.33 1568.97 1398.84 1568.97 Q1394.93 1568.97 1392.09 1567.44 Q1389.29 1565.88 1387.45 1562.7 M1407.37 1550.25 Q1407.37 1543.79 1404.7 1540.13 Q1402.06 1536.44 1397.41 1536.44 Q1392.76 1536.44 1390.09 1540.13 Q1387.45 1543.79 1387.45 1550.25 Q1387.45 1556.71 1390.09 1560.4 Q1392.76 1564.07 1397.41 1564.07 Q1402.06 1564.07 1404.7 1560.4 Q1407.37 1556.71 1407.37 1550.25 Z" fill="#000000" fill-rule="evenodd" fill-opacity="1"></path><path clip-path="url(#clip380)" d="M1428.95 1522.27 L1428.95 1532.4 L1441.01 1532.4 L1441.01 1536.95 L1428.95 1536.95 L1428.95 1556.3 Q1428.95 1560.66 1430.13 1561.9 Q1431.34 1563.14 1435 1563.14 L1441.01 1563.14 L1441.01 1568.04 L1435 1568.04 Q1428.22 1568.04 1425.64 1565.53 Q1423.06 1562.98 1423.06 1556.3 L1423.06 1536.95 L1418.77 1536.95 L1418.77 1532.4 L1423.06 1532.4 L1423.06 1522.27 L1428.95 1522.27 Z" fill="#000000" fill-rule="evenodd" fill-opacity="1"></path><path clip-path="url(#clip380)" d="M1478.35 1546.53 L1478.35 1568.04 L1472.49 1568.04 L1472.49 1546.72 Q1472.49 1541.66 1470.52 1539.14 Q1468.55 1536.63 1464.6 1536.63 Q1459.86 1536.63 1457.12 1539.65 Q1454.38 1542.68 1454.38 1547.9 L1454.38 1568.04 L1448.49 1568.04 L1448.49 1518.52 L1454.38 1518.52 L1454.38 1537.93 Q1456.48 1534.72 1459.32 1533.13 Q1462.18 1531.54 1465.9 1531.54 Q1472.05 1531.54 1475.2 1535.36 Q1478.35 1539.14 1478.35 1546.53 Z" fill="#000000" fill-rule="evenodd" fill-opacity="1"></path><polyline clip-path="url(#clip382)" style="stroke:#000000; stroke-linecap:round; stroke-linejoin:round; stroke-width:2; stroke-opacity:0.1; fill:none" points="219.866,1384.24 2352.76,1384.24 "></polyline>
<polyline clip-path="url(#clip382)" style="stroke:#000000; stroke-linecap:round; stroke-linejoin:round; stroke-width:2; stroke-opacity:0.1; fill:none" points="219.866,1105.6 2352.76,1105.6 "></polyline>
<polyline clip-path="url(#clip382)" style="stroke:#000000; stroke-linecap:round; stroke-linejoin:round; stroke-width:2; stroke-opacity:0.1; fill:none" points="219.866,826.952 2352.76,826.952 "></polyline>
<polyline clip-path="url(#clip382)" style="stroke:#000000; stroke-linecap:round; stroke-linejoin:round; stroke-width:2; stroke-opacity:0.1; fill:none" points="219.866,548.309 2352.76,548.309 "></polyline>
<polyline clip-path="url(#clip382)" style="stroke:#000000; stroke-linecap:round; stroke-linejoin:round; stroke-width:2; stroke-opacity:0.1; fill:none" points="219.866,269.666 2352.76,269.666 "></polyline>
<polyline clip-path="url(#clip380)" style="stroke:#000000; stroke-linecap:round; stroke-linejoin:round; stroke-width:4; stroke-opacity:1; fill:none" points="219.866,1423.18 219.866,47.2441 "></polyline>
<polyline clip-path="url(#clip380)" style="stroke:#000000; stroke-linecap:round; stroke-linejoin:round; stroke-width:4; stroke-opacity:1; fill:none" points="219.866,1384.24 238.764,1384.24 "></polyline>
<polyline clip-path="url(#clip380)" style="stroke:#000000; stroke-linecap:round; stroke-linejoin:round; stroke-width:4; stroke-opacity:1; fill:none" points="219.866,1105.6 238.764,1105.6 "></polyline>
<polyline clip-path="url(#clip380)" style="stroke:#000000; stroke-linecap:round; stroke-linejoin:round; stroke-width:4; stroke-opacity:1; fill:none" points="219.866,826.952 238.764,826.952 "></polyline>
<polyline clip-path="url(#clip380)" style="stroke:#000000; stroke-linecap:round; stroke-linejoin:round; stroke-width:4; stroke-opacity:1; fill:none" points="219.866,548.309 238.764,548.309 "></polyline>
<polyline clip-path="url(#clip380)" style="stroke:#000000; stroke-linecap:round; stroke-linejoin:round; stroke-width:4; stroke-opacity:1; fill:none" points="219.866,269.666 238.764,269.666 "></polyline>
<path clip-path="url(#clip380)" d="M126.691 1370.04 Q123.08 1370.04 121.251 1373.6 Q119.445 1377.14 119.445 1384.27 Q119.445 1391.38 121.251 1394.94 Q123.08 1398.49 126.691 1398.49 Q130.325 1398.49 132.13 1394.94 Q133.959 1391.38 133.959 1384.27 Q133.959 1377.14 132.13 1373.6 Q130.325 1370.04 126.691 1370.04 M126.691 1366.33 Q132.501 1366.33 135.556 1370.94 Q138.635 1375.52 138.635 1384.27 Q138.635 1393 135.556 1397.61 Q132.501 1402.19 126.691 1402.19 Q120.88 1402.19 117.802 1397.61 Q114.746 1393 114.746 1384.27 Q114.746 1375.52 117.802 1370.94 Q120.88 1366.33 126.691 1366.33 Z" fill="#000000" fill-rule="evenodd" fill-opacity="1"></path><path clip-path="url(#clip380)" d="M146.853 1395.64 L151.737 1395.64 L151.737 1401.52 L146.853 1401.52 L146.853 1395.64 Z" fill="#000000" fill-rule="evenodd" fill-opacity="1"></path><path clip-path="url(#clip380)" d="M171.922 1370.04 Q168.311 1370.04 166.482 1373.6 Q164.677 1377.14 164.677 1384.27 Q164.677 1391.38 166.482 1394.94 Q168.311 1398.49 171.922 1398.49 Q175.556 1398.49 177.362 1394.94 Q179.19 1391.38 179.19 1384.27 Q179.19 1377.14 177.362 1373.6 Q175.556 1370.04 171.922 1370.04 M171.922 1366.33 Q177.732 1366.33 180.788 1370.94 Q183.866 1375.52 183.866 1384.27 Q183.866 1393 180.788 1397.61 Q177.732 1402.19 171.922 1402.19 Q166.112 1402.19 163.033 1397.61 Q159.978 1393 159.978 1384.27 Q159.978 1375.52 163.033 1370.94 Q166.112 1366.33 171.922 1366.33 Z" fill="#000000" fill-rule="evenodd" fill-opacity="1"></path><path clip-path="url(#clip380)" d="M128.288 1091.39 Q124.677 1091.39 122.848 1094.96 Q121.043 1098.5 121.043 1105.63 Q121.043 1112.74 122.848 1116.3 Q124.677 1119.84 128.288 1119.84 Q131.922 1119.84 133.728 1116.3 Q135.556 1112.74 135.556 1105.63 Q135.556 1098.5 133.728 1094.96 Q131.922 1091.39 128.288 1091.39 M128.288 1087.69 Q134.098 1087.69 137.154 1092.3 Q140.232 1096.88 140.232 1105.63 Q140.232 1114.36 137.154 1118.96 Q134.098 1123.55 128.288 1123.55 Q122.478 1123.55 119.399 1118.96 Q116.343 1114.36 116.343 1105.63 Q116.343 1096.88 119.399 1092.3 Q122.478 1087.69 128.288 1087.69 Z" fill="#000000" fill-rule="evenodd" fill-opacity="1"></path><path clip-path="url(#clip380)" d="M148.45 1117 L153.334 1117 L153.334 1122.88 L148.45 1122.88 L148.45 1117 Z" fill="#000000" fill-rule="evenodd" fill-opacity="1"></path><path clip-path="url(#clip380)" d="M167.547 1118.94 L183.866 1118.94 L183.866 1122.88 L161.922 1122.88 L161.922 1118.94 Q164.584 1116.19 169.167 1111.56 Q173.774 1106.9 174.954 1105.56 Q177.2 1103.04 178.079 1101.3 Q178.982 1099.54 178.982 1097.85 Q178.982 1095.1 177.038 1093.36 Q175.116 1091.63 172.014 1091.63 Q169.815 1091.63 167.362 1092.39 Q164.931 1093.15 162.153 1094.7 L162.153 1089.98 Q164.977 1088.85 167.431 1088.27 Q169.885 1087.69 171.922 1087.69 Q177.292 1087.69 180.487 1090.38 Q183.681 1093.06 183.681 1097.55 Q183.681 1099.68 182.871 1101.6 Q182.084 1103.5 179.977 1106.09 Q179.399 1106.76 176.297 1109.98 Q173.195 1113.18 167.547 1118.94 Z" fill="#000000" fill-rule="evenodd" fill-opacity="1"></path><path clip-path="url(#clip380)" d="M126.205 812.751 Q122.593 812.751 120.765 816.316 Q118.959 819.857 118.959 826.987 Q118.959 834.093 120.765 837.658 Q122.593 841.2 126.205 841.2 Q129.839 841.2 131.644 837.658 Q133.473 834.093 133.473 826.987 Q133.473 819.857 131.644 816.316 Q129.839 812.751 126.205 812.751 M126.205 809.047 Q132.015 809.047 135.07 813.654 Q138.149 818.237 138.149 826.987 Q138.149 835.714 135.07 840.32 Q132.015 844.903 126.205 844.903 Q120.394 844.903 117.316 840.32 Q114.26 835.714 114.26 826.987 Q114.26 818.237 117.316 813.654 Q120.394 809.047 126.205 809.047 Z" fill="#000000" fill-rule="evenodd" fill-opacity="1"></path><path clip-path="url(#clip380)" d="M146.366 838.353 L151.251 838.353 L151.251 844.232 L146.366 844.232 L146.366 838.353 Z" fill="#000000" fill-rule="evenodd" fill-opacity="1"></path><path clip-path="url(#clip380)" d="M174.283 813.746 L162.477 832.195 L174.283 832.195 L174.283 813.746 M173.056 809.672 L178.936 809.672 L178.936 832.195 L183.866 832.195 L183.866 836.084 L178.936 836.084 L178.936 844.232 L174.283 844.232 L174.283 836.084 L158.681 836.084 L158.681 831.57 L173.056 809.672 Z" fill="#000000" fill-rule="evenodd" fill-opacity="1"></path><path clip-path="url(#clip380)" d="M126.529 534.108 Q122.918 534.108 121.089 537.673 Q119.283 541.214 119.283 548.344 Q119.283 555.45 121.089 559.015 Q122.918 562.557 126.529 562.557 Q130.163 562.557 131.968 559.015 Q133.797 555.45 133.797 548.344 Q133.797 541.214 131.968 537.673 Q130.163 534.108 126.529 534.108 M126.529 530.404 Q132.339 530.404 135.394 535.011 Q138.473 539.594 138.473 548.344 Q138.473 557.071 135.394 561.677 Q132.339 566.26 126.529 566.26 Q120.718 566.26 117.64 561.677 Q114.584 557.071 114.584 548.344 Q114.584 539.594 117.64 535.011 Q120.718 530.404 126.529 530.404 Z" fill="#000000" fill-rule="evenodd" fill-opacity="1"></path><path clip-path="url(#clip380)" d="M146.691 559.709 L151.575 559.709 L151.575 565.589 L146.691 565.589 L146.691 559.709 Z" fill="#000000" fill-rule="evenodd" fill-opacity="1"></path><path clip-path="url(#clip380)" d="M172.339 546.446 Q169.19 546.446 167.339 548.598 Q165.51 550.751 165.51 554.501 Q165.51 558.228 167.339 560.404 Q169.19 562.557 172.339 562.557 Q175.487 562.557 177.315 560.404 Q179.167 558.228 179.167 554.501 Q179.167 550.751 177.315 548.598 Q175.487 546.446 172.339 546.446 M181.621 531.793 L181.621 536.052 Q179.862 535.219 178.056 534.779 Q176.274 534.339 174.514 534.339 Q169.885 534.339 167.431 537.464 Q165.001 540.589 164.653 546.909 Q166.019 544.895 168.079 543.83 Q170.139 542.742 172.616 542.742 Q177.825 542.742 180.834 545.913 Q183.866 549.061 183.866 554.501 Q183.866 559.825 180.718 563.043 Q177.57 566.26 172.339 566.26 Q166.343 566.26 163.172 561.677 Q160.001 557.071 160.001 548.344 Q160.001 540.149 163.89 535.288 Q167.778 530.404 174.329 530.404 Q176.089 530.404 177.871 530.751 Q179.676 531.099 181.621 531.793 Z" fill="#000000" fill-rule="evenodd" fill-opacity="1"></path><path clip-path="url(#clip380)" d="M126.783 255.465 Q123.172 255.465 121.343 259.029 Q119.538 262.571 119.538 269.701 Q119.538 276.807 121.343 280.372 Q123.172 283.914 126.783 283.914 Q130.417 283.914 132.223 280.372 Q134.052 276.807 134.052 269.701 Q134.052 262.571 132.223 259.029 Q130.417 255.465 126.783 255.465 M126.783 251.761 Q132.593 251.761 135.649 256.367 Q138.728 260.951 138.728 269.701 Q138.728 278.428 135.649 283.034 Q132.593 287.617 126.783 287.617 Q120.973 287.617 117.894 283.034 Q114.839 278.428 114.839 269.701 Q114.839 260.951 117.894 256.367 Q120.973 251.761 126.783 251.761 Z" fill="#000000" fill-rule="evenodd" fill-opacity="1"></path><path clip-path="url(#clip380)" d="M146.945 281.066 L151.829 281.066 L151.829 286.946 L146.945 286.946 L146.945 281.066 Z" fill="#000000" fill-rule="evenodd" fill-opacity="1"></path><path clip-path="url(#clip380)" d="M172.014 270.534 Q168.681 270.534 166.76 272.316 Q164.862 274.099 164.862 277.224 Q164.862 280.349 166.76 282.131 Q168.681 283.914 172.014 283.914 Q175.348 283.914 177.269 282.131 Q179.19 280.326 179.19 277.224 Q179.19 274.099 177.269 272.316 Q175.371 270.534 172.014 270.534 M167.339 268.543 Q164.329 267.803 162.64 265.742 Q160.973 263.682 160.973 260.719 Q160.973 256.576 163.913 254.168 Q166.876 251.761 172.014 251.761 Q177.176 251.761 180.116 254.168 Q183.056 256.576 183.056 260.719 Q183.056 263.682 181.366 265.742 Q179.7 267.803 176.714 268.543 Q180.093 269.33 181.968 271.622 Q183.866 273.914 183.866 277.224 Q183.866 282.247 180.788 284.932 Q177.732 287.617 172.014 287.617 Q166.297 287.617 163.218 284.932 Q160.163 282.247 160.163 277.224 Q160.163 273.914 162.061 271.622 Q163.959 269.33 167.339 268.543 M165.626 261.159 Q165.626 263.844 167.292 265.349 Q168.982 266.854 172.014 266.854 Q175.024 266.854 176.714 265.349 Q178.426 263.844 178.426 261.159 Q178.426 258.474 176.714 256.969 Q175.024 255.465 172.014 255.465 Q168.982 255.465 167.292 256.969 Q165.626 258.474 165.626 261.159 Z" fill="#000000" fill-rule="evenodd" fill-opacity="1"></path><path clip-path="url(#clip380)" d="M16.4842 1020.92 L16.4842 993.612 L21.895 993.612 L21.895 1014.49 L35.8996 1014.49 L35.8996 995.649 L41.3104 995.649 L41.3104 1014.49 L64.0042 1014.49 L64.0042 1020.92 L16.4842 1020.92 Z" fill="#000000" fill-rule="evenodd" fill-opacity="1"></path><path clip-path="url(#clip380)" d="M46.0847 973.464 Q46.0847 980.562 47.7079 983.299 Q49.3312 986.037 53.2461 986.037 Q56.3653 986.037 58.2114 984 Q60.0256 981.931 60.0256 978.398 Q60.0256 973.528 56.5881 970.6 Q53.1188 967.64 47.3897 967.64 L46.0847 967.64 L46.0847 973.464 M43.6657 961.783 L64.0042 961.783 L64.0042 967.64 L58.5933 967.64 Q61.8398 969.645 63.3994 972.637 Q64.9272 975.629 64.9272 979.957 Q64.9272 985.432 61.8716 988.678 Q58.7843 991.893 53.6281 991.893 Q47.6125 991.893 44.5569 987.883 Q41.5014 983.841 41.5014 975.852 L41.5014 967.64 L40.9285 967.64 Q36.8862 967.64 34.6901 970.313 Q32.4621 972.955 32.4621 977.761 Q32.4621 980.817 33.1941 983.713 Q33.9262 986.61 35.3903 989.283 L29.9795 989.283 Q28.7381 986.069 28.1334 983.045 Q27.4968 980.021 27.4968 977.157 Q27.4968 969.422 31.5072 965.603 Q35.5176 961.783 43.6657 961.783 Z" fill="#000000" fill-rule="evenodd" fill-opacity="1"></path><path clip-path="url(#clip380)" d="M28.3562 949.72 L28.3562 943.864 L64.0042 943.864 L64.0042 949.72 L28.3562 949.72 M14.479 949.72 L14.479 943.864 L21.895 943.864 L21.895 949.72 L14.479 949.72 Z" fill="#000000" fill-rule="evenodd" fill-opacity="1"></path><path clip-path="url(#clip380)" d="M14.479 931.61 L14.479 925.753 L64.0042 925.753 L64.0042 931.61 L14.479 931.61 Z" fill="#000000" fill-rule="evenodd" fill-opacity="1"></path><path clip-path="url(#clip380)" d="M49.9359 914.104 L28.3562 914.104 L28.3562 908.248 L49.7131 908.248 Q54.7739 908.248 57.3202 906.274 Q59.8346 904.301 59.8346 900.354 Q59.8346 895.612 56.8109 892.875 Q53.7872 890.106 48.5673 890.106 L28.3562 890.106 L28.3562 884.249 L64.0042 884.249 L64.0042 890.106 L58.5296 890.106 Q61.7762 892.238 63.3676 895.071 Q64.9272 897.872 64.9272 901.596 Q64.9272 907.739 61.1078 910.921 Q57.2883 914.104 49.9359 914.104 M27.4968 899.368 L27.4968 899.368 Z" fill="#000000" fill-rule="evenodd" fill-opacity="1"></path><path clip-path="url(#clip380)" d="M33.8307 851.529 Q33.2578 852.516 33.0032 853.694 Q32.7167 854.84 32.7167 856.24 Q32.7167 861.205 35.9632 863.879 Q39.1779 866.521 45.2253 866.521 L64.0042 866.521 L64.0042 872.409 L28.3562 872.409 L28.3562 866.521 L33.8944 866.521 Q30.6479 864.675 29.0883 861.714 Q27.4968 858.754 27.4968 854.521 Q27.4968 853.916 27.5923 853.184 Q27.656 852.452 27.8151 851.561 L33.8307 851.529 Z" fill="#000000" fill-rule="evenodd" fill-opacity="1"></path><path clip-path="url(#clip380)" d="M44.7161 816.327 L47.5806 816.327 L47.5806 843.254 Q53.6281 842.872 56.8109 839.625 Q59.9619 836.347 59.9619 830.523 Q59.9619 827.149 59.1344 823.998 Q58.3069 820.815 56.6518 817.696 L62.1899 817.696 Q63.5267 820.847 64.227 824.157 Q64.9272 827.467 64.9272 830.873 Q64.9272 839.403 59.9619 844.4 Q54.9967 849.365 46.5303 849.365 Q37.7774 849.365 32.6531 844.654 Q27.4968 839.912 27.4968 831.891 Q27.4968 824.698 32.1438 820.528 Q36.7589 816.327 44.7161 816.327 M42.9973 822.183 Q38.1912 822.247 35.3266 824.889 Q32.4621 827.499 32.4621 831.827 Q32.4621 836.729 35.2312 839.689 Q38.0002 842.617 43.0292 843.063 L42.9973 822.183 Z" fill="#000000" fill-rule="evenodd" fill-opacity="1"></path><path clip-path="url(#clip380)" d="M21.7677 779.31 L39.6235 779.31 L39.6235 771.226 Q39.6235 766.738 37.3 764.287 Q34.9765 761.837 30.6797 761.837 Q26.4147 761.837 24.0912 764.287 Q21.7677 766.738 21.7677 771.226 L21.7677 779.31 M16.4842 785.74 L16.4842 771.226 Q16.4842 763.237 20.1126 759.163 Q23.7092 755.057 30.6797 755.057 Q37.7138 755.057 41.3104 759.163 Q44.907 763.237 44.907 771.226 L44.907 779.31 L64.0042 779.31 L64.0042 785.74 L16.4842 785.74 Z" fill="#000000" fill-rule="evenodd" fill-opacity="1"></path><path clip-path="url(#clip380)" d="M33.8307 727.175 Q33.2578 728.162 33.0032 729.34 Q32.7167 730.485 32.7167 731.886 Q32.7167 736.851 35.9632 739.525 Q39.1779 742.167 45.2253 742.167 L64.0042 742.167 L64.0042 748.055 L28.3562 748.055 L28.3562 742.167 L33.8944 742.167 Q30.6479 740.32 29.0883 737.36 Q27.4968 734.4 27.4968 730.167 Q27.4968 729.562 27.5923 728.83 Q27.656 728.098 27.8151 727.207 L33.8307 727.175 Z" fill="#000000" fill-rule="evenodd" fill-opacity="1"></path><path clip-path="url(#clip380)" d="M32.4621 708.651 Q32.4621 713.362 36.1542 716.099 Q39.8145 718.836 46.212 718.836 Q52.6095 718.836 56.3017 716.131 Q59.9619 713.394 59.9619 708.651 Q59.9619 703.972 56.2698 701.235 Q52.5777 698.498 46.212 698.498 Q39.8781 698.498 36.186 701.235 Q32.4621 703.972 32.4621 708.651 M27.4968 708.651 Q27.4968 701.012 32.4621 696.652 Q37.4273 692.291 46.212 692.291 Q54.9649 692.291 59.9619 696.652 Q64.9272 701.012 64.9272 708.651 Q64.9272 716.322 59.9619 720.682 Q54.9649 725.011 46.212 725.011 Q37.4273 725.011 32.4621 720.682 Q27.4968 716.322 27.4968 708.651 Z" fill="#000000" fill-rule="evenodd" fill-opacity="1"></path><path clip-path="url(#clip380)" d="M46.212 656.993 Q39.7508 656.993 36.0905 659.667 Q32.3984 662.309 32.3984 666.956 Q32.3984 671.603 36.0905 674.276 Q39.7508 676.918 46.212 676.918 Q52.6732 676.918 56.3653 674.276 Q60.0256 671.603 60.0256 666.956 Q60.0256 662.309 56.3653 659.667 Q52.6732 656.993 46.212 656.993 M33.7671 676.918 Q30.5842 675.072 29.0564 672.271 Q27.4968 669.438 27.4968 665.523 Q27.4968 659.03 32.6531 654.988 Q37.8093 650.914 46.212 650.914 Q54.6147 650.914 59.771 654.988 Q64.9272 659.03 64.9272 665.523 Q64.9272 669.438 63.3994 672.271 Q61.8398 675.072 58.657 676.918 L64.0042 676.918 L64.0042 682.806 L14.479 682.806 L14.479 676.918 L33.7671 676.918 Z" fill="#000000" fill-rule="evenodd" fill-opacity="1"></path><path clip-path="url(#clip380)" d="M46.0847 625.006 Q46.0847 632.103 47.7079 634.841 Q49.3312 637.578 53.2461 637.578 Q56.3653 637.578 58.2114 635.541 Q60.0256 633.472 60.0256 629.939 Q60.0256 625.069 56.5881 622.141 Q53.1188 619.181 47.3897 619.181 L46.0847 619.181 L46.0847 625.006 M43.6657 613.325 L64.0042 613.325 L64.0042 619.181 L58.5933 619.181 Q61.8398 621.186 63.3994 624.178 Q64.9272 627.17 64.9272 631.499 Q64.9272 636.973 61.8716 640.22 Q58.7843 643.434 53.6281 643.434 Q47.6125 643.434 44.5569 639.424 Q41.5014 635.382 41.5014 627.393 L41.5014 619.181 L40.9285 619.181 Q36.8862 619.181 34.6901 621.855 Q32.4621 624.496 32.4621 629.303 Q32.4621 632.358 33.1941 635.254 Q33.9262 638.151 35.3903 640.824 L29.9795 640.824 Q28.7381 637.61 28.1334 634.586 Q27.4968 631.562 27.4968 628.698 Q27.4968 620.963 31.5072 617.144 Q35.5176 613.325 43.6657 613.325 Z" fill="#000000" fill-rule="evenodd" fill-opacity="1"></path><path clip-path="url(#clip380)" d="M46.212 575.671 Q39.7508 575.671 36.0905 578.345 Q32.3984 580.987 32.3984 585.634 Q32.3984 590.281 36.0905 592.954 Q39.7508 595.596 46.212 595.596 Q52.6732 595.596 56.3653 592.954 Q60.0256 590.281 60.0256 585.634 Q60.0256 580.987 56.3653 578.345 Q52.6732 575.671 46.212 575.671 M33.7671 595.596 Q30.5842 593.75 29.0564 590.949 Q27.4968 588.116 27.4968 584.201 Q27.4968 577.708 32.6531 573.666 Q37.8093 569.592 46.212 569.592 Q54.6147 569.592 59.771 573.666 Q64.9272 577.708 64.9272 584.201 Q64.9272 588.116 63.3994 590.949 Q61.8398 593.75 58.657 595.596 L64.0042 595.596 L64.0042 601.484 L14.479 601.484 L14.479 595.596 L33.7671 595.596 Z" fill="#000000" fill-rule="evenodd" fill-opacity="1"></path><path clip-path="url(#clip380)" d="M28.3562 559.884 L28.3562 554.028 L64.0042 554.028 L64.0042 559.884 L28.3562 559.884 M14.479 559.884 L14.479 554.028 L21.895 554.028 L21.895 559.884 L14.479 559.884 Z" fill="#000000" fill-rule="evenodd" fill-opacity="1"></path><path clip-path="url(#clip380)" d="M14.479 541.774 L14.479 535.918 L64.0042 535.918 L64.0042 541.774 L14.479 541.774 Z" fill="#000000" fill-rule="evenodd" fill-opacity="1"></path><path clip-path="url(#clip380)" d="M28.3562 523.664 L28.3562 517.807 L64.0042 517.807 L64.0042 523.664 L28.3562 523.664 M14.479 523.664 L14.479 517.807 L21.895 517.807 L21.895 523.664 L14.479 523.664 Z" fill="#000000" fill-rule="evenodd" fill-opacity="1"></path><path clip-path="url(#clip380)" d="M18.2347 499.76 L28.3562 499.76 L28.3562 487.697 L32.9077 487.697 L32.9077 499.76 L52.2594 499.76 Q56.6199 499.76 57.8613 498.583 Q59.1026 497.373 59.1026 493.713 L59.1026 487.697 L64.0042 487.697 L64.0042 493.713 Q64.0042 500.492 61.4897 503.071 Q58.9434 505.649 52.2594 505.649 L32.9077 505.649 L32.9077 509.946 L28.3562 509.946 L28.3562 505.649 L18.2347 505.649 L18.2347 499.76 Z" fill="#000000" fill-rule="evenodd" fill-opacity="1"></path><path clip-path="url(#clip380)" d="M67.3143 465.163 Q73.68 467.645 75.6216 470.001 Q77.5631 472.356 77.5631 476.303 L77.5631 480.982 L72.6615 480.982 L72.6615 477.544 Q72.6615 475.125 71.5157 473.788 Q70.3699 472.452 66.1048 470.828 L63.4312 469.778 L28.3562 484.196 L28.3562 477.99 L56.238 466.85 L28.3562 455.71 L28.3562 449.503 L67.3143 465.163 Z" fill="#000000" fill-rule="evenodd" fill-opacity="1"></path><polyline clip-path="url(#clip382)" style="stroke:#009af9; stroke-linecap:round; stroke-linejoin:round; stroke-width:10; stroke-opacity:1; fill:none" points="280.231,1384.24 293.645,1384.24 307.06,1384.24 320.474,1384.24 333.889,1384.24 347.303,1384.24 360.717,1384.24 374.132,1384.24 387.546,1384.24 400.961,1384.24 414.375,1384.24 427.789,1384.24 441.204,1384.24 454.618,1384.24 468.033,1384.24 481.447,1384.24 494.861,1384.24 508.276,1384.24 521.69,1384.24 535.105,1384.24 548.519,1384.24 561.933,1384.24 575.348,1384.24 588.762,1384.24 602.177,1384.24 615.591,1384.24 629.005,1384.24 642.42,1384.24 655.834,1384.24 669.249,1384.24 682.663,1384.24 696.077,1384.24 709.492,1384.24 722.906,1384.24 736.321,1384.24 749.735,1384.24 763.149,1384.24 776.564,1384.24 789.978,1384.24 803.393,1384.24 816.807,1384.24 830.221,1384.24 843.636,1384.24 857.05,1384.24 870.465,1384.24 883.879,1384.24 897.293,1384.24 910.708,1384.24 924.122,1384.24 937.537,1384.24 950.951,1384.24 964.365,1384.24 977.78,1384.24 991.194,1384.24 1004.61,1384.24 1018.02,1384.24 1031.44,1384.24 1044.85,1384.24 1058.27,1384.24 1071.68,1383.95 1085.1,1382.87 1098.51,1381.02 1111.92,1378.43 1125.34,1375.14 1138.75,1371.17 1152.17,1366.56 1165.58,1361.34 1179,1355.54 1192.41,1349.18 1205.82,1342.29 1219.24,1334.89 1232.65,1327 1246.07,1318.66 1259.48,1309.87 1272.9,1300.66 1286.31,1291.06 1299.73,1281.07 1313.14,1270.72 1326.55,1260.03 1339.97,1249 1353.38,1237.66 1366.8,1226.03 1380.21,1214.1 1393.63,1201.91 1407.04,1189.47 1420.46,1176.78 1433.87,1163.85 1447.28,1150.71 1460.7,1137.36 1474.11,1123.81 1487.53,1110.08 1500.94,1096.17 1514.36,1082.09 1527.77,1067.85 1541.18,1053.47 1554.6,1038.94 1568.01,1024.28 1581.43,1009.5 1594.84,994.596 1608.26,979.584 1621.67,964.468 1635.09,949.256 1648.5,933.954 1661.91,918.567 1675.33,903.102 1688.74,887.564 1702.16,871.959 1715.57,856.292 1728.99,840.568 1742.4,824.792 1755.82,808.968 1769.23,793.1 1782.64,777.194 1796.06,761.253 1809.47,745.28 1822.89,729.281 1836.3,713.257 1849.72,697.214 1863.13,681.153 1876.54,665.079 1889.96,648.995 1903.37,632.903 1916.79,616.805 1930.2,600.706 1943.62,584.607 1957.03,568.512 1970.45,552.421 1983.86,536.338 1997.27,520.266 2010.69,504.205 2024.1,488.158 2037.52,472.127 2050.93,456.114 2064.35,440.308 2077.76,424.925 2091.18,409.956 2104.59,395.39 2118,381.218 2131.42,367.431 2144.83,354.02 2158.25,340.975 2171.66,328.289 2185.08,315.952 2198.49,303.958 2211.9,292.298 2225.32,280.963 2238.73,269.948 2252.15,259.244 2265.56,248.844 2278.98,238.742 2292.39,228.93 "></polyline>
<polyline clip-path="url(#clip382)" style="stroke:#e26f46; stroke-linecap:round; stroke-linejoin:round; stroke-width:10; stroke-opacity:1; fill:none" points="280.231,1384.24 293.645,1384.24 307.06,1384.24 320.474,1384.24 333.889,1384.24 347.303,1384.24 360.717,1384.24 374.132,1384.24 387.546,1384.24 400.961,1384.24 414.375,1384.24 427.789,1384.24 441.204,1384.24 454.618,1384.24 468.033,1384.24 481.447,1384.24 494.861,1384.24 508.276,1384.24 521.69,1384.24 535.105,1384.24 548.519,1384.24 561.933,1384.24 575.348,1384.24 588.762,1384.24 602.177,1384.24 615.591,1384.24 629.005,1384.24 642.42,1384.24 655.834,1384.24 669.249,1384.24 682.663,1384.24 696.077,1384.24 709.492,1384.24 722.906,1384.24 736.321,1384.24 749.735,1384.24 763.149,1384.24 776.564,1384.24 789.978,1384.24 803.393,1384.24 816.807,1384.24 830.221,1384.24 843.636,1384.24 857.05,1384.24 870.465,1384.24 883.879,1384.24 897.293,1384.24 910.708,1384.24 924.122,1384.24 937.537,1384.24 950.951,1384.24 964.365,1384.24 977.78,1384.24 991.194,1384.24 1004.61,1384.24 1018.02,1384.24 1031.44,1384.24 1044.85,1384.24 1058.27,1384.24 1071.68,1383.67 1085.1,1381.51 1098.51,1377.8 1111.92,1372.62 1125.34,1366.03 1138.75,1358.1 1152.17,1348.89 1165.58,1338.45 1179,1326.84 1192.41,1314.12 1205.82,1300.33 1219.24,1285.53 1232.65,1269.77 1246.07,1253.07 1259.48,1235.5 1272.9,1217.09 1286.31,1197.88 1299.73,1177.91 1313.14,1157.21 1326.55,1135.81 1339.97,1113.76 1353.38,1091.09 1366.8,1067.81 1380.21,1043.97 1393.63,1019.59 1407.04,994.695 1420.46,969.313 1433.87,943.469 1447.28,917.191 1460.7,891.16 1474.11,865.819 1487.53,841.147 1500.94,817.125 1514.36,793.737 1527.77,770.963 1541.18,748.787 1554.6,727.191 1568.01,706.161 1581.43,685.681 1594.84,665.735 1608.26,646.309 1621.67,627.389 1635.09,608.961 1648.5,591.012 1661.91,573.529 1675.33,556.5 1688.74,539.913 1702.16,523.756 1715.57,508.017 1728.99,492.687 1742.4,477.753 1755.82,463.206 1769.23,449.037 1782.64,435.234 1796.06,421.789 1809.47,408.692 1822.89,395.936 1836.3,383.51 1849.72,371.407 1863.13,359.618 1876.54,348.136 1889.96,336.953 1903.37,326.062 1916.79,315.455 1930.2,305.125 1943.62,295.066 1957.03,285.271 1970.45,275.733 1983.86,266.446 1997.27,257.404 2010.69,248.6 2024.1,240.031 2037.52,231.689 2050.93,223.569 2064.35,215.666 2077.76,207.974 2091.18,200.489 2104.59,193.206 2118,186.121 2131.42,179.227 2144.83,172.521 2158.25,165.999 2171.66,159.656 2185.08,153.488 2198.49,147.49 2211.9,141.66 2225.32,135.993 2238.73,130.485 2252.15,125.133 2265.56,119.934 2278.98,114.882 2292.39,109.976 "></polyline>
<polyline clip-path="url(#clip382)" style="stroke:#3da44d; stroke-linecap:round; stroke-linejoin:round; stroke-width:10; stroke-opacity:1; fill:none" points="280.231,1384.24 293.645,1384.24 307.06,1384.24 320.474,1384.24 333.889,1384.24 347.303,1384.24 360.717,1384.24 374.132,1384.24 387.546,1384.24 400.961,1384.24 414.375,1384.24 427.789,1384.24 441.204,1384.24 454.618,1384.24 468.033,1384.24 481.447,1384.24 494.861,1384.24 508.276,1384.24 521.69,1384.24 535.105,1384.24 548.519,1384.24 561.933,1384.24 575.348,1384.24 588.762,1384.24 602.177,1384.24 615.591,1384.24 629.005,1384.24 642.42,1384.24 655.834,1384.24 669.249,1384.24 682.663,1384.24 696.077,1384.24 709.492,1384.24 722.906,1384.24 736.321,1384.24 749.735,1384.24 763.149,1384.24 776.564,1384.24 789.978,1384.24 803.393,1384.24 816.807,1384.24 830.221,1384.24 843.636,1384.24 857.05,1384.24 870.465,1384.24 883.879,1384.24 897.293,1384.24 910.708,1384.24 924.122,1384.24 937.537,1384.24 950.951,1384.24 964.365,1384.24 977.78,1384.24 991.194,1384.24 1004.61,1384.24 1018.02,1384.24 1031.44,1384.24 1044.85,1384.24 1058.27,1384.24 1071.68,1383.1 1085.1,1378.78 1098.51,1371.37 1111.92,1361.01 1125.34,1347.83 1138.75,1331.97 1152.17,1313.54 1165.58,1292.66 1179,1269.44 1192.41,1244 1205.82,1216.43 1219.24,1186.83 1232.65,1155.29 1246.07,1123.01 1259.48,1091.61 1272.9,1061.07 1286.31,1031.38 1299.73,1002.49 1313.14,974.397 1326.55,947.066 1339.97,920.476 1353.38,894.607 1366.8,869.435 1380.21,844.941 1393.63,821.104 1407.04,797.906 1420.46,775.327 1433.87,753.35 1447.28,731.958 1460.7,711.133 1474.11,690.859 1487.53,671.122 1500.94,651.905 1514.36,633.194 1527.77,614.975 1541.18,597.234 1554.6,579.958 1568.01,563.134 1581.43,546.749 1594.84,530.793 1608.26,515.252 1621.67,500.116 1635.09,485.373 1648.5,471.014 1661.91,457.028 1675.33,443.405 1688.74,430.135 1702.16,417.209 1715.57,404.618 1728.99,392.354 1742.4,380.407 1755.82,368.77 1769.23,357.434 1782.64,346.392 1796.06,335.636 1809.47,325.158 1822.89,314.953 1836.3,305.012 1849.72,295.33 1863.13,285.899 1876.54,276.714 1889.96,267.767 1903.37,259.054 1916.79,250.569 1930.2,242.305 1943.62,234.258 1957.03,226.421 1970.45,218.791 1983.86,211.361 1997.27,204.127 2010.69,197.085 2024.1,190.229 2037.52,183.555 2050.93,177.059 2064.35,170.737 2077.76,164.584 2091.18,158.596 2104.59,152.77 2118,147.101 2131.42,141.586 2144.83,136.222 2158.25,131.004 2171.66,125.929 2185.08,120.995 2198.49,116.197 2211.9,111.533 2225.32,106.999 2238.73,102.593 2252.15,98.3113 2265.56,94.1514 2278.98,90.1104 2292.39,86.1857 "></polyline>
<path clip-path="url(#clip380)" d="M290.963 300.469 L601.08 300.469 L601.08 93.1086 L290.963 93.1086  Z" fill="#ffffff" fill-rule="evenodd" fill-opacity="1"></path>
<polyline clip-path="url(#clip380)" style="stroke:#000000; stroke-linecap:round; stroke-linejoin:round; stroke-width:4; stroke-opacity:1; fill:none" points="290.963,300.469 601.08,300.469 601.08,93.1086 290.963,93.1086 290.963,300.469 "></polyline>
<polyline clip-path="url(#clip380)" style="stroke:#009af9; stroke-linecap:round; stroke-linejoin:round; stroke-width:10; stroke-opacity:1; fill:none" points="314.661,144.949 456.854,144.949 "></polyline>
<path clip-path="url(#clip380)" d="M480.553 126.21 L484.812 126.21 L484.812 162.229 L480.553 162.229 L480.553 126.21 Z" fill="#000000" fill-rule="evenodd" fill-opacity="1"></path><path clip-path="url(#clip380)" d="M503.77 139.289 Q500.344 139.289 498.354 141.974 Q496.363 144.636 496.363 149.289 Q496.363 153.942 498.33 156.627 Q500.321 159.289 503.77 159.289 Q507.173 159.289 509.164 156.604 Q511.154 153.918 511.154 149.289 Q511.154 144.682 509.164 141.997 Q507.173 139.289 503.77 139.289 M503.77 135.678 Q509.326 135.678 512.497 139.289 Q515.668 142.9 515.668 149.289 Q515.668 155.655 512.497 159.289 Q509.326 162.9 503.77 162.9 Q498.192 162.9 495.02 159.289 Q491.872 155.655 491.872 149.289 Q491.872 142.9 495.02 139.289 Q498.192 135.678 503.77 135.678 Z" fill="#000000" fill-rule="evenodd" fill-opacity="1"></path><path clip-path="url(#clip380)" d="M520.252 136.303 L524.511 136.303 L529.835 156.534 L535.136 136.303 L540.159 136.303 L545.483 156.534 L550.784 136.303 L555.043 136.303 L548.261 162.229 L543.238 162.229 L537.659 140.979 L532.057 162.229 L527.034 162.229 L520.252 136.303 Z" fill="#000000" fill-rule="evenodd" fill-opacity="1"></path><polyline clip-path="url(#clip380)" style="stroke:#e26f46; stroke-linecap:round; stroke-linejoin:round; stroke-width:10; stroke-opacity:1; fill:none" points="314.661,196.789 456.854,196.789 "></polyline>
<path clip-path="url(#clip380)" d="M500.9 193.12 Q502.497 190.249 504.719 188.884 Q506.942 187.518 509.951 187.518 Q514.002 187.518 516.201 190.365 Q518.4 193.189 518.4 198.421 L518.4 214.069 L514.117 214.069 L514.117 198.559 Q514.117 194.833 512.798 193.027 Q511.479 191.222 508.77 191.222 Q505.46 191.222 503.539 193.421 Q501.617 195.62 501.617 199.416 L501.617 214.069 L497.335 214.069 L497.335 198.559 Q497.335 194.809 496.016 193.027 Q494.696 191.222 491.942 191.222 Q488.678 191.222 486.756 193.444 Q484.835 195.643 484.835 199.416 L484.835 214.069 L480.553 214.069 L480.553 188.143 L484.835 188.143 L484.835 192.171 Q486.293 189.786 488.331 188.652 Q490.368 187.518 493.168 187.518 Q495.993 187.518 497.96 188.953 Q499.951 190.388 500.9 193.12 Z" fill="#000000" fill-rule="evenodd" fill-opacity="1"></path><path clip-path="url(#clip380)" d="M549.071 200.041 L549.071 202.124 L529.488 202.124 Q529.765 206.522 532.127 208.837 Q534.511 211.129 538.747 211.129 Q541.201 211.129 543.492 210.527 Q545.807 209.925 548.076 208.721 L548.076 212.749 Q545.784 213.721 543.377 214.231 Q540.969 214.74 538.492 214.74 Q532.289 214.74 528.654 211.129 Q525.043 207.518 525.043 201.36 Q525.043 194.995 528.469 191.268 Q531.918 187.518 537.752 187.518 Q542.983 187.518 546.015 190.897 Q549.071 194.254 549.071 200.041 M544.812 198.791 Q544.765 195.296 542.844 193.212 Q540.946 191.129 537.798 191.129 Q534.233 191.129 532.08 193.143 Q529.951 195.157 529.627 198.814 L544.812 198.791 Z" fill="#000000" fill-rule="evenodd" fill-opacity="1"></path><path clip-path="url(#clip380)" d="M573.122 192.078 L573.122 178.05 L577.381 178.05 L577.381 214.069 L573.122 214.069 L573.122 210.18 Q571.779 212.495 569.719 213.629 Q567.682 214.74 564.812 214.74 Q560.113 214.74 557.15 210.99 Q554.21 207.24 554.21 201.129 Q554.21 195.018 557.15 191.268 Q560.113 187.518 564.812 187.518 Q567.682 187.518 569.719 188.652 Q571.779 189.763 573.122 192.078 M558.608 201.129 Q558.608 205.828 560.529 208.513 Q562.474 211.175 565.853 211.175 Q569.233 211.175 571.177 208.513 Q573.122 205.828 573.122 201.129 Q573.122 196.43 571.177 193.768 Q569.233 191.083 565.853 191.083 Q562.474 191.083 560.529 193.768 Q558.608 196.43 558.608 201.129 Z" fill="#000000" fill-rule="evenodd" fill-opacity="1"></path><polyline clip-path="url(#clip380)" style="stroke:#3da44d; stroke-linecap:round; stroke-linejoin:round; stroke-width:10; stroke-opacity:1; fill:none" points="314.661,248.629 456.854,248.629 "></polyline>
<path clip-path="url(#clip380)" d="M502.266 250.261 L502.266 265.909 L498.006 265.909 L498.006 250.399 Q498.006 246.719 496.571 244.89 Q495.136 243.062 492.266 243.062 Q488.817 243.062 486.826 245.261 Q484.835 247.46 484.835 251.256 L484.835 265.909 L480.553 265.909 L480.553 229.89 L484.835 229.89 L484.835 244.011 Q486.363 241.673 488.423 240.515 Q490.506 239.358 493.215 239.358 Q497.682 239.358 499.974 242.136 Q502.266 244.89 502.266 250.261 Z" fill="#000000" fill-rule="evenodd" fill-opacity="1"></path><path clip-path="url(#clip380)" d="M510.761 239.983 L515.02 239.983 L515.02 265.909 L510.761 265.909 L510.761 239.983 M510.761 229.89 L515.02 229.89 L515.02 235.284 L510.761 235.284 L510.761 229.89 Z" fill="#000000" fill-rule="evenodd" fill-opacity="1"></path><path clip-path="url(#clip380)" d="M540.992 252.645 Q540.992 248.015 539.071 245.469 Q537.173 242.923 533.724 242.923 Q530.298 242.923 528.377 245.469 Q526.478 248.015 526.478 252.645 Q526.478 257.251 528.377 259.798 Q530.298 262.344 533.724 262.344 Q537.173 262.344 539.071 259.798 Q540.992 257.251 540.992 252.645 M545.252 262.691 Q545.252 269.311 542.312 272.529 Q539.372 275.77 533.307 275.77 Q531.062 275.77 529.071 275.422 Q527.08 275.098 525.205 274.404 L525.205 270.26 Q527.08 271.279 528.909 271.765 Q530.738 272.251 532.636 272.251 Q536.826 272.251 538.909 270.052 Q540.992 267.876 540.992 263.455 L540.992 261.348 Q539.673 263.64 537.613 264.774 Q535.552 265.909 532.682 265.909 Q527.914 265.909 524.997 262.274 Q522.08 258.64 522.08 252.645 Q522.08 246.626 524.997 242.992 Q527.914 239.358 532.682 239.358 Q535.552 239.358 537.613 240.492 Q539.673 241.626 540.992 243.918 L540.992 239.983 L545.252 239.983 L545.252 262.691 Z" fill="#000000" fill-rule="evenodd" fill-opacity="1"></path><path clip-path="url(#clip380)" d="M575.575 250.261 L575.575 265.909 L571.316 265.909 L571.316 250.399 Q571.316 246.719 569.881 244.89 Q568.446 243.062 565.575 243.062 Q562.126 243.062 560.136 245.261 Q558.145 247.46 558.145 251.256 L558.145 265.909 L553.863 265.909 L553.863 229.89 L558.145 229.89 L558.145 244.011 Q559.673 241.673 561.733 240.515 Q563.816 239.358 566.525 239.358 Q570.992 239.358 573.284 242.136 Q575.575 244.89 575.575 250.261 Z" fill="#000000" fill-rule="evenodd" fill-opacity="1"></path></svg>